<?xml version="1.0" encoding="UTF-8"?>
<svg id="Layer_2" data-name="Layer 2" xmlns="http://www.w3.org/2000/svg" viewBox="0 0 2550.97 426.52">
  <defs>
    <style>
      .cls-1 {
        letter-spacing: -.04em;
      }

      .cls-2 {
        letter-spacing: .12em;
      }

      .cls-3 {
        letter-spacing: -.01em;
      }

      .cls-4 {
        fill: #fff;
      }

      .cls-4, .cls-5 {
        font-size: 86.41px;
      }

      .cls-4, .cls-5, .cls-6 {
        font-family: AkiraExpanded-SuperBold, 'Akira Expanded';
        font-weight: 700;
      }

      .cls-7 {
        letter-spacing: .1em;
      }

      .cls-8 {
        letter-spacing: .05em;
      }

      .cls-9 {
        letter-spacing: .13em;
      }

      .cls-10 {
        letter-spacing: .02em;
      }

      .cls-11 {
        letter-spacing: .07em;
      }

      .cls-12 {
        letter-spacing: .05em;
      }

      .cls-13 {
        letter-spacing: .06em;
      }

      .cls-14 {
        fill: #fda22d;
      }

      .cls-15 {
        letter-spacing: .13em;
      }

      .cls-5, .cls-6 {
        fill: #fd950e;
      }

      .cls-16 {
        letter-spacing: .12em;
      }

      .cls-17 {
        letter-spacing: .06em;
      }

      .cls-6 {
        font-size: 48px;
      }

      .cls-18 {
        letter-spacing: .06em;
      }
    </style>
  </defs>
  <g id="Layer_1-2" data-name="Layer 1">
    <g>
      <text class="cls-5" transform="translate(98.25 109.51)"><tspan class="cls-11" x="0" y="0">T</tspan><tspan class="cls-13" x="82.06" y="0">i</tspan><tspan class="cls-17" x="110.67" y="0">c</tspan><tspan class="cls-10" x="194.59" y="0">k</tspan><tspan class="cls-18" x="279.27" y="0">e</tspan><tspan x="352.56" y="0">t ty</tspan><tspan class="cls-12" x="634.91" y="0">p</tspan><tspan x="716.97" y="0">e</tspan></text>
      <text class="cls-4" transform="translate(99.25 239.51)"><tspan class="cls-7" x="0" y="0">g</tspan><tspan class="cls-2" x="87.17" y="0">e</tspan><tspan class="cls-15" x="165.27" y="0">n</tspan><tspan class="cls-16" x="255.6" y="0">e</tspan><tspan x="333.7" y="0">ral</tspan></text>
      <text class="cls-4" transform="translate(1251.25 237.51)"><tspan x="0" y="0">e300</tspan></text>
      <text class="cls-4" transform="translate(1252.25 368.51)"><tspan x="0" y="0">e380</tspan></text>
      <text class="cls-4" transform="translate(1966.25 365.51)"><tspan x="0" y="0">e1000</tspan></text>
      <text class="cls-4" transform="translate(1966.25 236.51)"><tspan x="0" y="0">e350</tspan></text>
      <g>
        <text class="cls-5" transform="translate(1280.25 107.51)"><tspan class="cls-12" x="0" y="0">p</tspan><tspan x="82.06" y="0">h</tspan><tspan class="cls-1" x="161.22" y="0">a</tspan><tspan class="cls-8" x="246.4" y="0">s</tspan><tspan x="329.27" y="0">e</tspan></text>
        <text class="cls-5" transform="translate(1108.25 108.51)"><tspan x="0" y="0">1</tspan></text>
        <text class="cls-6" transform="translate(1167.12 86.83)"><tspan class="cls-3" x="0" y="0">s</tspan><tspan x="43.12" y="0">t</tspan></text>
      </g>
      <g>
        <text class="cls-5" transform="translate(2024.25 118.51)"><tspan class="cls-12" x="0" y="0">p</tspan><tspan x="82.06" y="0">h</tspan><tspan class="cls-1" x="161.22" y="0">a</tspan><tspan class="cls-8" x="246.4" y="0">s</tspan><tspan x="329.27" y="0">e</tspan></text>
        <text class="cls-5" transform="translate(1831.25 119.51)"><tspan x="0" y="0">2</tspan></text>
        <text class="cls-6" transform="translate(1911.12 97.83)"><tspan class="cls-9" x="0" y="0">n</tspan><tspan x="50.18" y="0">d</tspan></text>
      </g>
      <g>
        <path class="cls-14" d="m2418.86,266.36c1.26-.26.55-.85-2.94-.72l-2.47,1,5.41-.28Z"/>
        <path class="cls-14" d="m2395.4,264.58c-4.1.49-8.83,1.35-6.17,2.25,4.06-.96,5.04-.57,9.41-1.71,3.49-.12,6.09.3,5.5.67,1.23-.26,5.42.21,7.3-.42-4.54-.76-10.29-.78-16.3-.13-1.29-.22-.04-.48.25-.66Z"/>
        <path class="cls-14" d="m2054.52,263.81l2.2.11c-.6-.06-1.35-.1-2.2-.11Z"/>
        <path class="cls-14" d="m1843.32,263.75c1.61-.03,2.28-.13,2.36-.22-1.49.07-2.72.13-2.36.22Z"/>
        <path class="cls-14" d="m1807.26,262.73c.77.03,1.42.04,2.13.06-.81-.09-1.63-.14-2.13-.06Z"/>
        <path class="cls-14" d="m2054.52,263.81l-5.64-.3c-.39.32,2.89.23,5.64.3Z"/>
        <path class="cls-14" d="m2348.4,267.08c1.18-.05,2.16-.15,3.06-.27-.97.04-1.91.08-2.88.11-.05.05-.1.1-.19.16Z"/>
        <path class="cls-14" d="m2147.62,262.79h1.72c.5-.12.98-.26,1.42-.41l-3.14.41Z"/>
        <path class="cls-14" d="m2219.07,262.47c-1.62-.03-2.18.81-2.79,1.18.91-.35,2.11-.52,3.52-.59.03-.16-.19-.35-.73-.6Z"/>
        <path class="cls-14" d="m2332.38,263.7l2.01-.12c-.52.04-1.4.07-2.01.12Z"/>
        <path class="cls-14" d="m2096.48,262.72c-.12-.12-.38-.23-.65-.3,0,.11.26.21.65.3Z"/>
        <path class="cls-14" d="m98.02,273.63c.06-.06-.02-.1,0-.15-.42.09-.54.15,0,.15Z"/>
        <path class="cls-14" d="m15.19,269.65l1.15-.05c.12-.16.25-.32.25-.47l-1.39.52Z"/>
        <path class="cls-14" d="m1741.26,261.8c.13,0,.17,0,.29.02,1.74-.1.75-.08-.29-.02Z"/>
        <path class="cls-14" d="m1135.44,263.81c6.86.74-11.17.99-.83,1.81-.96-.33,9.39-1.34.83-1.81Z"/>
        <path class="cls-14" d="m2346.55,266.97c-.96.01-1.95.02-2.93.02,1.33.02,2.23.02,2.93-.02Z"/>
        <path class="cls-14" d="m1134.61,265.62h0s1.07.08,1.07.08c-.44-.03-.69-.06-1.07-.08Z"/>
        <path class="cls-14" d="m1589.21,262.66c.31.15.92.26,1.55.37-.05-.09-.4-.19-1.55-.37Z"/>
        <path class="cls-14" d="m1702.49,263.6l-2.8-.11c1.11.07,2.01.1,2.8.11Z"/>
        <path class="cls-14" d="m1530.4,263.98c-1.52-.06-2.04-.18-4.12-.06.19.04.38.07.63.1.75-.12,1.75-.17,3.49-.04Z"/>
        <path class="cls-14" d="m1469.18,264.13c.32.06.75.11,1.13.17.61-.02,1.32-.03,1.94-.05l-3.07-.12Z"/>
        <path class="cls-14" d="m284.06,272.8c-1.34-.23-2.18-.49-2.83-.75.95.6-8.05.83,2.83.75Z"/>
        <path class="cls-14" d="m2348.36,266.6c-.36.21-.88.32-1.82.37.7-.01,1.38-.03,2.04-.05.18-.13.22-.24-.22-.32Z"/>
        <path class="cls-14" d="m1527.92,270.64l-9.73-.1c2.72.08,6.25.11,9.73.1Z"/>
        <path class="cls-14" d="m723.25,271.68l-2.23.11c.86.02,1.65,0,2.23-.11Z"/>
        <path class="cls-14" d="m1489.33,270.73c-1.74-.29-3.58-.46-5.48-.57-.4.07-.86.12-1.13.22l6.61.35Z"/>
        <path class="cls-14" d="m281.21,272.04s.02,0,.02,0c0,0,0,0-.02,0Z"/>
        <path class="cls-14" d="m217.15,274.19c9.27,0,4.35-1.09,6.32-1.73,11.06-.34,5.12.8,8.89,1.36,6.91-.31,12.2-1.34,17.35-1.31.38.18,1.39.25.21.48,7.3-.9,21.68-.09,30.18-1.22.63.1.95.19,1.11.27-1.38-.55-1.59-1.12-1.31-1.52,4.15-.03,7.71-.72,9.27,0-2.55-.02-2.76.28-3.95.51l4.35-.32c3.92,1.03-5.94.37-5.94,1.14,8.49-.36,18.38-1.24,24.89-.96,1.36,1.02-15.21.38-6.53,1.26l-10.07-.37c7.7,1.59-6.12-.1.96,1.61,13.25.26,14.81-.55,28.03-.29,2.97-.57-.98-.84,1.99-1.41,18.78-1.06,14.79,2.53,28.59,1.14,3.57-.69,4.96-1.98,14.79-1.32l-3.35,1.16c12.82.08,7.32-1.67,20.75-.93-2.39.46-10.08.4-8.14.54,8.7.89,6.15-.67,12.84-.68l1.39,1.02c13.65-.19,28.69-.96,43.81-1.18-.84.31-3.43.63.11.93,19.07-.55,40.71.03,59.11.59l7.03-.9c1.63,0,3.03.39,1.26.57,7.17.32.37-.56,3.81-.91,4.08-.07,5.39.49,2.8.76,12.65-.78,36.03-1.69,49.36-.78l-2.6.27c10.38.33,11.71-1.83,21.34-1.03l-1.85.16c22.53.33,47.42-.53,64.61.76,3.27-1.28,22.3.51,23.74-1.26,12.87.85,9.18,1.17,27.3,1.72,4.84.07,7.21-1.12,13.19-1.32l.15.92,8.12-.99,4.32,1.1,5.61-.25c-2.24-.05-4.75-.4-4.41-.67,8.76-.44,21.36.6,21.58,1.07l20.73-.83c-.46.37-3.93.51-6.68.75,11.06-.97,2.01.97,12.15.08-1.36-.21.73-.55.96-.74,5.06.55,16.56.53,25.08.27l-1.63.64c15.38.13,32.42-.38,49.68-.41-6.19-.28-4.77-1.39.29-1.51l2.03.97c3.27-.61-5.29-.36,1.42-1.11,6.45.1,4.34,1.1.64,1.43l7.84-.36c.46.29-1.38.45-1.85.82,3.21-.61,13.53.95,18.17-.11l.44.29c17.25-.03,25.08-.39,39.13-.47.27-.84,5.77-.67,9.96-1.36,10.33.25,21.79.88,34.24.78,8.74-.44,2.55-.72,6.48-1.23.64.77,13.07.67,6.63,1.23,14.94-.16,19.08-.2,37.97-.86-2.05-.31-4.36-.44-3.16-.71,3.43-.13,7.8.3,7.31.67l-.9.08c21.2-1.2,48.94,2.13,65.82.49l-.95.08,17.51-.87c8.06.11-4.83.59,1.13,1.05,18.88-1.33,29.84.12,45.39-.77,12.04,2.24,42.72-.26,58.98,1.15l-.94-.53c4.2-.53,5.08.29,8.18.41-.44-.41-4.56-.47-1.95-.77,35.58-.72,73.44.61,109.92,1.01,13.34.11,7.57-2.78,24.39-1.54l-4.77,1c26.92-1.25,55.05-.08,81.41-1.15-1.57.23-1.61.53-4.19.53,5.57.71,20.59-.01,20.68-.6,4.1.06.95.53,3.48.82,5.59.41,14.01-.95,16.98-.24.5.12-1.57.24-2.59.3,3.64-.36,16.96.05,13.47-.77,9.89.37,18.92-.41,26.81.06,5.14-.94,16.93.41,18.57-.91-.71,1.36,17.34,1.05,23.6.4-2.09.41,5.44.41,2.99.99,7.14-.04,13.68-.3,12.43-1,13.15,1.59,26.43-1.37,33.84.7,21.2-.78,40.82-1.32,59.89-1.68-.68,1.35-21.08.18-20.26,1.6,18.09-.6,28.53-1.78,46.47-1.5,4.65.17-2.64.59-4.2.83,18.08-.6,34.95.04,51.04-.73-.04.13-1.78.27-3.42.38,3.17-.05,7.37.18,7.01-.43l-3.09.17c-5.06-.88,12.58-1.89,13.15-2.37-5.38,1.78,15.89.41,7.35,2.65,2.09-.12,4.7-.42,4.22-.83,3.1.11,4.08.35.94.83,11.35-.36,7.32-1.01,17.61-1.02-.04.3-2.11.42-3.17.77,5.21-.59,10.44-1.19,19.13-.95-.52.18.49.41-2.11.41,14.93-.12,25.45-1.6,41.83-1.08-4.83,1.3,5.57.41,6.44,1.53l8.81-.35-3.54-.54c7.72,0,14.53-.83,21.17-.48l-5.73.47,14.46-.25-8.18-.41c7.81-.59-.84-1.42,9.43-1.13-2.09.12,7.72,0,11.74.65,0,0-.03,0-.03,0,3.82-.37,7.74-.75,13.45-.48,1.48.35-1.19,1.24-.22,1.48,3.76-.94,18.07-.3,22.83-1.31-1.59.24-1.67.83-1.15.95l3.16-.77c3.57.24,4.1.35,3.52.82,10.75.11-3.42-1.41,9.34-.83-1,.06-.52.18-2.61.3,12.82.29,24.76-.54,36.53-.19,3.48,1.12-10.29.3-6.31,1.24,16.98-.24,35.15-1.43,51.58-1.2l-3.06-.12c2.27-1.6,12.24.76,20.54-.01-2.03.12-2.66.89-2.12.71,11.25.23,23-.44,40.05-.98l-2.11.41c6.63.35,17.46.17,24.63.34,2.12-.41,6.22-.36,3.73-.94,22.09,2.28,42.12-1.34,61.72.55-2.34,0-5.58.37-3.72.37l16.69-.42c-1.32-.69-2.19-.41-5.7-.95,2.11-.42,6.82-.75,10.96-.75-7.51.48.07,1.11,3.31,1.49-.54-.21.57-.45.29-.66,8.72,1.21,1.46-1.4,13.36-.59l-.63.37c4.45-.2,8.56-.69,13.36-.59,1.99.8-4.74.39-5.05,1.05,6.75-.06,13.31-1.55,19.42-.76-2.86.23-6.99.24-9.85.47,6.65.93,7.42.69,12.37.82l-.49-.02,11.43.4-2.91-.25c8.44-2.11,17.19-.42,28.57-1.82-11.05,1.32-1.83.75-2.67,1.66,2.91.25,7.32.52,6.06.78,5.37-.75,8.98.56,16.56-.53.34.29,5.75.02,4.54.75,6.99-.25-1.65-.51-1.07-.87,10.77-1.02,25.33,1.15,40.82-.25,13.36-.6,15.83-1.59,28.23-2.11,4.19.46-3.43,1.07-3.43,1.07,6.75.42,11.83.32,18.2-.02-1.29.26.04.47,1.98.79,5.11-.09,3.41-1.07,10.15-.66-1.15.33-2.64.85-5.1,1.19,6.02-.28,11.96-.84,18.19-1.12,1.65.51-3.76.78-5.95,1.12,7-.25,18.14-.5,20.3-1.32l-4.49-.28c2.55-.04,1.31.69-.57.84-6,.65-8.65-.26-9-.55l4.44-.2c-4.56-1.71-17.82.32-26.75.24l3.72-1.26-9.16,1.06c-1.95-.32-3.28-1.01,1.13-1.21-6.4-.6-5.67.46-11.17-.22-.61-.11-.33-.17.23-.22l-6.26.39c1.23-.26-1.04-.88,2.8-.71-11.23-.69-18.11.98-22.34.04l.94-.08c-15.58.46-1.5.92-13.19,2.02l-7.87-2.24-1.53.92c-1.61-.03-4.79-.09-4.2-.46-5.98.64,1.02.4-2.45,1-7.74-.82-21.33.44-23.08-1.02-2.77.7,7.4.52-.86,1.02-2.36-1.56-9.55.29-16.62-.41,2.17-.81,8.86-.4,1.79-1.11-4.26,1.38-13.76-.27-19.72,0-.28,1.09-12.96.48-22.96.87.63-.37-18.83-.56-28.13-.93l.27-.18c-1.8,1.11-11.4.92-18.39,1.16.27-.66,1.53-.92,5.32-1.23l-6.57.02c-1.55.36-3.6.55-7.86.68l1.65-.83c-8.75.06-17.61,1.01-28.86.49-.63.77,8.95,2.12-2.94,2.66-.44-.41-.88-1.12,2.23-1.3-1.02.06-3.64.35-5.69.18l4.75-.71c-5.13-.29-2.68.59-6.78.53.08-.59-3.03-.42-2.45-.89,1.05-.06,3.57.24,5.14,0-4.62-.1-10.21-.43-12.05-.88.4.34,0,.8-3.38.88-8.75.06-3-.71-8.1-1-2.12.42-7.7,0-7.84.89-2.56,0-3.03-.41-4.02-.65-4.52.4-21.14.16-16.04,1.09l1.16.06c-.22.02-.47.02-.74.04h.04-.04c-14.83.91-30.82-.43-45.54-.02l.02-.3c-8.79.36-19.56.24-25.83.9-2.6,0-6.13-.53-5.02-.88-6.72.24-7.47.57-17.17.11,6.75-.53-2.33-.45,6.92-.39-8.73-.24-10.71-.71-20.07.13,3.19-.77-6.57-.94-10.72-.7l6.12.53c-4.66.12-8.74.06-12.89,0l2.24-1c-17.86-1.17-32.2,2.14-45.8.14-4.72.71,9.7.47,5.48,1.3-8.21-.12-16.78-1.53-19.35-1.53-11.25-.53-10.5,1.48-22.27,1.13,1.51.35,2.93,1.3-5.87,1.65-8.22-.11-10.11-1.47-4.92-1.77,1.97-.03,2.92.08,2.84.2,2.66-.14,6.14-.3,2.88-.67l-1.07.36c-4.08-.35-15.39-.29-12.73-.88-6.21.35-2.65.59,1.95.76-10.55-.49-16.47.02-27.33-.3,1.73.19,3.32.61,1.6.61-15.92-.4-7.01.69-17.79.87-6.13-.53,2.19-1.3-8.66-.82-6.63-.35-1.41-.94,1.23-1.24-9.89.71-18.49-.41-24.14-.52l5.21-.3c-3.12.18-5.67.18-8.27.18l2.98.71c-3.06-.12-5.65-.11-5.59-.41-3.15.47,2.42,1.18-3.84,1.83-4.08-.35-12.42.42-13.83-.52,12.83.29-1.42-.95,9.44-1.12-2.09.12-4.65.12-7.72,0-.46-.1.43-.2,1.27-.25-12.28-.82-5.64,1.08-18.36,1.09,1.61-.54-2.95-1-5.03-.88,5.13,0,2.45.88-2.25,1.3-8.16-.4-8.86.33-13.14.29l4.88.18c-1.65.54-5.73.48-11.42.66-.49-.41,5.16-.3,3.13-.48-6.31.95-14.27-.94-23.07-.29-4.08-.35-.4-1-3.98-1.24-9.87.71-10.69-.71-21.06-.11,2.99.71,3.51.53-3.79,1.25l17.05-.54-10.94,1.07c5.15,0,10.86-.47,13.94-.36-5.21.6-4.68.42-2.21,1-7.04-1.06-13.96.66-22.1-.05l.24-1.77c-12.24-.76-21.74.96-37.63.55l5.11.3c-2.13.71-9.81.12-14.95.42.48-.59-2.74-.8-4.94-1.17.27.44-11.63-.01-13.07,1.17l-7.09-.76c-12.83-.29-14.64,1.72-26.97,1.55,3.71-.65-1.89-1.06,6.37-1.54-4.12,0-7.82-.1-7.88.31-2.41-.37-11.42.82-15.2.27-1.74.26-2.3.89-6.92.85-.5-.12.02-.29.02-.29-.02.29-7.24.41-3.2,1.06-12.69-1.82-35.45.22-46.5-1.35-8.99.22-19.81.44-27.97.5.52-.18.03-.3,1.57-.24-11.25-.53-6.91,1.72-19.72,1.13-6.54-.94,6.8-.53,2.72-.89-1.78-1.95-15.45.3-24.07-.82l2.09-.12c-6.59-.65-16.07.77-26.83.66,0,0,.52-.17.06-.29-7.36,1.01-21.29,1.37-31.64,1.67,3.22-.77,4.7-.41,2.73-1.18-4.64.12,1.36,1.24-7.9,1.48-3.01-.41-9.7-.76-10.58-1.58l8.74-.06c-4.48-1.06-11.31.06-15.91-.11l.59-.47c-13.39.18-13.57,1.36-27.97,1.31l1.49.35c-7.86,1.18-6.6-.64-14.44.24l-2.38-1.18c-5.19.3-18.18,1.19-27.48,1.43,5.27-.89,16.16-1.36,22.9-1.9-5.15,0-17.48.13-20.16.72,2.07-.12,4.68-.42,6.73-.24-6.31.95-14.61,1.42-24.86,1.42,1.81-2.3-26.72-.52-34.16-2.28-18.13.89-35.98-.28-57.1-.1,7.5,1.77-6.17.06-4.87,1.9-4.92.13-6.8.1-7.24-.02l-14.92-1.06c-3.54-.53,4.68-.42,4.23-.83-10.77-.12-4.52-.77-11.65-1.24,1.46.65-3.74.95-9.89.71l8.65.83c-15.05,1.01-13.02-1.51-28.19-.51l4.8-.59c-7.79.36-28.73.05-36.36,1.54-1.38-.21-3.2-.71.23-.85-18.61-.18-41.43,1.66-55.9.79l1.41-.45c-3.47.14-6.04.86-10.39.42.22-.19,1.4-.45-.21-.47-1.84.16-9.22.81-13.82.56l3.93-.51c-18.16-.55-27.86,1.29-43.08,1.64.04-1.32-14.25-1.72-21.38-1.91l.25-.19c-21.14-.11-35.91,1.18-55.48,1.74-12.16-1.41-41.17-.51-60.7-1.27,2.99.23-.48,1.03-3.96,1.17-4.58-.26-12.67.95-11.94-.27l1.63.02c-3.46-1.18-12.88-.84-20.23-.86l-1.21,1.59c-19.24-2.26-50.4.96-60.91-1.08-4.64.41-10.39.42-14.99.82l.25-.85c-12.86-.19-19.29-.28-35.18-.04l3.24-.61c-8.97-.03-11.32,2.48-19.59,2.54l-2.49-1.26c-15.65.06-31.48-1.02-46.94.16.25-.19.71-.55,3.25-.61-7.36-.02-28.49-.79-25.81.94-.19-1.13-16.14-.07-24.59.44l1.31-.84c-7.13,1.08-7.36,1.38-17.31,1.7-2.36-.1-2.07-.66,1.07-.46-7.87-.42-6.13.81-15.66.38l3.55-.54c-8.09-.05-7.45.24-11.9.87-5.09.35-15.35-.18-16.55-.93-1.09.46-5.52,1.09-10.29.88-.64-.28,1.09-.47,1.96-.55-13.53-.54-20.12,1.02-29.42.22-.19-.28-.8-.41-1.57-.5,10.75,0,19.4.02,18.59.08,0-.77-8.68-.89-1.78-1.97-6.97.6-18.88,1.89-27.35,1.54-.41-.07-.81-.15-1.12-.26l.88-.09c-1.95-.07-3.7,0-5.35.14-2.7-.12-4.42-.21-7.01-.22-1-.64-9.96-.32-14.29-.34.36.84-5.31.72,0,1.41-.69-.06.82-.1,3.7-.15.65-.03,1.42-.04,1.85-.09-.08.02-.19.05-.3.07,2.84-.03,6.55-.06,10.76-.08-3.42.44-6.99.8-11.78.35-2.22.55-4.66,1.11-6.04,1.37-5.93-1.16-17.35-1.77-18.94-2.49-13.22.5-31.14.38-39.45,1.99-3.76.21-4.32-.44-5.73-.69,2.17-.16,4.75-.15,5.92-.38-7.51.42-22.26.21-24.06,1.32-9.47-.48,5.32-1.03-7.69-.82l1.76-.34c-25.61-1.71-41.62,2.92-70.01.71,1.97.13,2.95.2,3.35.38-32.36-.93-66.69,1.09-98.62-.42-9.08-.3-10.06.41-15.6.96l-1.97-.9-9.47,1.07c-13.43.8-23.26-2.17-40.26-.68l2.2.61c-6.11-.1-19.34.4-18.33-.3-.62.11-2,.64-4.39.33l-.19-.47-15,.85c-11.63-.32,1.82-1.89-15.16-1.94-6.31.2-17.96,1.42-15.59,1.73,2.55.02,6.51.28,6.7.75l-5.77.26c-1.04,1.4-5.48,2.84,8.69,3.78l9.87-.88,3.18.67-8.31.06c4.71.63,7.7.06,11.04-.34.79.36,2.18.61,4.14.74l9.69-1.36c1.18.54-4.34,1.09,2.16,1.38,4.54-.63-4.36-1.21,3.16-1.64,4.72.62,3.35,1.14,8.89.59.78.36-.39.59-2.59.75,4.93-.44,13.05-.21,15.6-.96,4.92.77,16.65-.24,16.17,1.08,1.55-.32,8.69-1.06,13.22-1.12-8.27,1.6,16.96.05,14.78,1.76,6.12-1.44,22.13-.68,32.98-1.5-.61.11-1.8.35-2.76.27,6.11.1,7.88.53,11.81.79.78-1.18,10.29-1.47,15.42-2.2,7.49,1.12-4.54,1.39-2.19,2.47-.38-.95,13-.98,10.46-1.77,5.73.69,4.93.33,7.89,1.3,1-1.47,5.33-.26,10.08-1.18,8.29.71,2.14,1.37,11.24.9,4.33.44-3.76.98-3.76.98Zm216.45-3.04v.02c-1.86.02-3.45.04-4.47.06.93-.01,2.22-.03,4.47-.07Zm18.19-.05c-2.21-.03-4.97-.03-7.89-.02-.64-.29.05-.59,1.88-.58-.99.2,3.29.36,6.01.6Zm-38.49-5.76c2.88-.13,3.84.04,4.24.21-1.36.02-2.95.05-5.04.11-.08.03-.26.07-.34.1.27-.16.59-.31,1.14-.43Z"/>
        <path class="cls-14" d="m408.14,266.46c-.42.02-.65.06-1.19.06.59.07,1.15.13,1.72.19.35-.09.71-.18,1.02-.27-.52,0-1.06,0-1.55.02Z"/>
        <path class="cls-14" d="m2057.1,263.94l-.38-.02c.32.03.61.06.81.12-.26-.04-.26-.07-.42-.1Z"/>
        <polygon class="cls-14" points="702.99 272.14 702.96 271.93 701.37 272.12 702.99 272.14"/>
        <path class="cls-14" d="m2157.3,266.6c.19.07.57.15,1.32.21-.06-.06-.63-.13-1.32-.21Z"/>
        <path class="cls-14" d="m2200.57,266.69l6.12.29c-2.65-.16-4.58-.24-6.12-.29Z"/>
        <path class="cls-14" d="m2233.85,267.04c.42-.15.54-.26.65-.36-.03,0-.04,0-.07,0l-.58.37Z"/>
        <path class="cls-14" d="m1704.8,269.24c-.45,0-.89.02-1.28.04-3.01.17-.96.1,1.28-.04Z"/>
        <path class="cls-14" d="m1862.23,266.91c-1.67.16-3.32.31-5.06.41,2.8.06,4.98.07,5.06-.41Z"/>
        <path class="cls-14" d="m1528.99,270.65s0,0,.02-.02c-.38,0-.71,0-1.09,0h1.07Z"/>
        <path class="cls-14" d="m1849.85,267.32c2.8.16,5.15.12,7.32,0-2.3-.05-5-.13-7.32,0Z"/>
        <path class="cls-14" d="m2378.07,267.09l1.6.03c-.03-.06.07-.1.19-.14l-1.79.11Z"/>
        <path class="cls-14" d="m2379.86,266.98l1.78-.1c-.82,0-1.53.01-1.78.1Z"/>
        <path class="cls-14" d="m2385.39,266.66l-3.75.22c1.3,0,2.9.02,3.75-.22Z"/>
        <path class="cls-14" d="m2334.02,266.8l-.5.31c.27-.06.45-.16.5-.31Z"/>
        <path class="cls-14" d="m2320.63,266.92c3.19.06,8.01.63,12.47.43l.42-.24c-2.09.46-9.85-.71-12.88-.19Z"/>
        <path class="cls-14" d="m2264.75,263.27l11.22.22c-1.96-.32-4.54-.75.56-.84-14.14-.94,2.92.72-11.78.62Z"/>
        <path class="cls-14" d="m2229.97,262.87c6.03-.17-.07-.47.25-.66-3.82.31-4.75.38-.25.66Z"/>
        <path class="cls-14" d="m1978.63,263.44l.6-.77c-4.65.12-.04.3-.6.77Z"/>
        <polygon class="cls-14" points="1930.59 267.52 1935.11 267.99 1937.26 267.28 1930.59 267.52"/>
        <polygon class="cls-14" points="1902.19 262.12 1904.22 262.01 1896.47 262.3 1902.19 262.12"/>
        <path class="cls-14" d="m1480.07,263.36l1.41.94c3.14-.18,3.8-1.24-1.41-.94Z"/>
        <path class="cls-14" d="m1297.84,264.74c-1.99-.47-7.11-.76-10.27-.29,4.1.06,8.18.42,10.27.29Z"/>
        <polygon class="cls-14" points="751.3 264.45 754.97 264.12 748.06 264.4 751.3 264.45"/>
      </g>
      <g>
        <path class="cls-14" d="m2550.35,6.85c1.33-.26.58-.84-3.1-.73l-2.61.99,5.71-.26Z"/>
        <path class="cls-14" d="m2525.61,5.01c-4.32.48-9.31,1.33-6.51,2.24,4.28-.95,5.32-.56,9.93-1.69,3.68-.12,6.42.32,5.8.68,1.3-.25,5.72.22,7.7-.41-4.79-.77-10.85-.8-17.19-.16-1.36-.22-.04-.48.27-.66Z"/>
        <path class="cls-14" d="m2166.09,3.46l2.32.12c-.63-.07-1.43-.1-2.32-.12Z"/>
        <path class="cls-14" d="m1943.34,2.92c1.7-.02,2.4-.12,2.49-.21-1.57.06-2.87.13-2.49.21Z"/>
        <path class="cls-14" d="m1905.31,1.82c.82.03,1.5.05,2.24.07-.85-.09-1.72-.14-2.24-.07Z"/>
        <path class="cls-14" d="m2166.09,3.46l-5.95-.31c-.42.32,3.05.24,5.95.31Z"/>
        <path class="cls-14" d="m2476.04,7.41c1.25-.05,2.28-.14,3.23-.26-1.02.04-2.01.08-3.04.1-.06.05-.1.1-.2.16Z"/>
        <path class="cls-14" d="m2264.29,2.66h1.81c.53-.11,1.03-.25,1.5-.41l-3.31.41Z"/>
        <path class="cls-14" d="m2339.65,2.5c-1.7-.04-2.3.81-2.95,1.17.96-.35,2.22-.51,3.72-.58.03-.16-.2-.35-.77-.6Z"/>
        <path class="cls-14" d="m2459.15,3.99l2.12-.12c-.55.04-1.48.07-2.12.12Z"/>
        <path class="cls-14" d="m2210.35,2.47c-.13-.12-.4-.23-.69-.3,0,.11.27.21.69.3Z"/>
        <path class="cls-14" d="m102.54,8.81c.06-.06-.02-.1,0-.15-.44.08-.57.15,0,.15Z"/>
        <path class="cls-14" d="m15.19,4.64l1.21-.05c.13-.16.26-.32.26-.47l-1.47.52Z"/>
        <path class="cls-14" d="m1835.7.74c.14,0,.18,0,.31.02,1.83-.1.79-.08-.31-.02Z"/>
        <path class="cls-14" d="m1196.74,1.36c7.24.75-11.78.97-.88,1.81-1.01-.33,9.9-1.32.88-1.81Z"/>
        <path class="cls-14" d="m2474.08,7.29c-1.02,0-2.05.02-3.09,0,1.41.03,2.35.02,3.09,0Z"/>
        <path class="cls-14" d="m1195.86,3.17h0s1.12.09,1.12.09c-.47-.03-.73-.06-1.12-.09Z"/>
        <path class="cls-14" d="m1675.33,1.25c.33.15.97.26,1.64.37-.06-.09-.42-.19-1.64-.37Z"/>
        <path class="cls-14" d="m1794.81,2.45l-2.96-.11c1.17.08,2.12.1,2.96.11Z"/>
        <path class="cls-14" d="m1613.3,2.44c-1.61-.06-2.15-.18-4.35-.07.2.04.41.07.67.1.79-.11,1.85-.17,3.68-.04Z"/>
        <path class="cls-14" d="m1548.73,2.44c.34.06.79.11,1.19.17.64-.02,1.39-.03,2.05-.04l-3.24-.12Z"/>
        <path class="cls-14" d="m298.77,8.41c-1.41-.24-2.29-.5-2.98-.76,1,.6-8.49.81,2.98.76Z"/>
        <path class="cls-14" d="m2476,6.93c-.38.21-.93.32-1.92.36.74,0,1.45-.03,2.15-.05.19-.13.23-.24-.23-.32Z"/>
        <path class="cls-14" d="m1610.67,9.09l-10.26-.12c2.87.08,6.6.12,10.26.12Z"/>
        <path class="cls-14" d="m761.97,8.29l-2.35.1c.91.02,1.74,0,2.35-.1Z"/>
        <path class="cls-14" d="m1569.97,9.09c-1.83-.3-3.77-.47-5.78-.58-.42.07-.91.12-1.19.22l6.97.37Z"/>
        <path class="cls-14" d="m295.76,7.64s.02,0,.02,0c0,0,0,0-.02,0Z"/>
        <path class="cls-14" d="m228.19,9.64c9.78.02,4.59-1.08,6.67-1.72,11.67-.31,5.4.82,9.37,1.38,7.29-.29,12.87-1.31,18.3-1.27.41.18,1.46.25.22.48,7.7-.88,22.86-.04,31.84-1.15.67.1,1,.19,1.17.28-1.45-.56-1.68-1.12-1.38-1.52,4.38-.02,8.13-.7,9.78.02-2.69-.02-2.91.27-4.17.5l4.59-.31c4.13,1.04-6.27.36-6.27,1.13,8.95-.34,19.39-1.2,26.25-.91,1.43,1.02-16.04.34-6.89,1.25l-10.62-.39c8.11,1.61-6.45-.11,1,1.61,13.97.29,15.63-.52,29.56-.22,3.14-.57-1.04-.84,2.1-1.4,19.81-1.02,15.59,2.56,30.15,1.2,3.77-.68,5.23-1.97,15.6-1.29l-3.54,1.15c13.53.11,7.72-1.66,21.89-.88-2.52.45-10.63.38-8.58.52,9.18.91,6.49-.65,13.54-.65l1.46,1.02c14.4-.16,30.26-.9,46.21-1.08-.88.3-3.61.62.12.93,20.11-.51,42.94.12,62.34.73l7.41-.88c1.72.01,3.2.4,1.33.57,7.56.33.39-.56,4.03-.9,4.3-.06,5.68.51,2.96.77,13.34-.75,38.01-1.61,52.07-.67l-2.74.26c10.95.36,12.35-1.8,22.51-.98l-1.95.16c23.76.38,50.02-.42,68.14.9,3.45-1.27,23.52.57,25.04-1.2,13.57.88,9.68,1.19,28.79,1.78,5.1.08,7.61-1.1,13.91-1.29l.15.93,8.56-.97,4.56,1.11,5.92-.24c-2.36-.05-5.01-.42-4.65-.68,9.24-.42,22.53.64,22.76,1.12l21.87-.78c-.49.37-4.15.5-7.04.74,11.67-.94,2.12.97,12.82.11-1.43-.21.77-.55,1.02-.74,5.33.56,17.47.56,26.45.33l-1.72.64c16.22.16,34.19-.31,52.4-.29-6.53-.3-5.03-1.4.31-1.51l2.13.98c3.45-.6-5.58-.37,1.5-1.11,6.8.11,4.57,1.11.67,1.43l8.27-.34c.49.29-1.45.45-1.96.82,3.39-.61,14.27.98,19.16-.07l.47.29c18.2,0,26.45-.33,41.27-.38.29-.84,6.09-.66,10.5-1.34,10.89.27,22.98.93,36.11.86,9.22-.42,2.69-.71,6.84-1.21.68.77,13.79.7,6.99,1.25,15.75-.13,20.12-.15,40.04-.78-2.16-.31-4.59-.45-3.33-.71,3.62-.13,8.23.32,7.71.69l-.95.08c22.36-1.15,51.61,2.24,69.42.64l-1,.08,18.47-.83c8.5.13-5.1.58,1.19,1.05,19.92-1.28,31.47.19,47.88-.67,12.7,2.27,45.06-.16,62.2,1.29l-.99-.53c4.43-.52,5.36.31,8.62.43-.46-.41-4.81-.48-2.05-.77,37.53-.64,77.46.78,115.93,1.26,14.07.14,7.99-2.76,25.72-1.49l-5.04.99c28.4-1.19,58.06.04,85.86-.97-1.66.23-1.7.53-4.42.52,5.87.72,21.71.04,21.81-.55,4.33.07,1,.53,3.67.83,5.89.42,14.78-.92,17.91-.2.53.12-1.65.23-2.73.29,3.84-.35,17.88.09,14.21-.74,10.43.4,19.96-.37,28.28.12,5.43-.93,17.86.45,19.58-.87-.75,1.36,18.29,1.09,24.89.46-2.21.41,5.74.43,3.15.99,7.53-.02,14.43-.27,13.11-.97,13.87,1.62,27.88-1.31,35.69.77,22.36-.73,43.06-1.22,63.17-1.54-.73,1.35-22.24.13-21.37,1.55,19.08-.56,30.09-1.72,49.02-1.39,4.9.19-2.78.59-4.44.82,19.07-.56,36.87.12,53.83-.61-.05.13-1.88.26-3.61.37,3.34-.04,7.78.2,7.4-.42l-3.26.17c-5.34-.89,13.28-1.87,13.88-2.34-5.67,1.76,16.76.44,7.74,2.67,2.2-.12,4.96-.41,4.46-.82,3.26.12,4.3.36.99.83,11.98-.33,7.72-.99,18.57-.98-.04.3-2.23.41-3.35.76,5.49-.58,11.01-1.16,20.18-.91-.55.18.51.41-2.22.41,15.75-.09,26.84-1.55,44.12-.98-5.1,1.29,5.88.43,6.79,1.55l9.29-.33-3.73-.54c8.14.02,15.33-.8,22.32-.43l-6.05.46,15.25-.21-8.63-.42c8.23-.58-.88-1.42,9.95-1.1-2.2.11,8.14.01,12.38.67,0,0-.03,0-.03,0,4.03-.36,8.17-.73,14.18-.45,1.56.36-1.26,1.24-.24,1.48,3.97-.94,19.06-.26,24.09-1.26-1.68.23-1.76.82-1.21.94l3.33-.76c3.77.24,4.32.36,3.71.83,11.34.14-3.6-1.42,9.86-.81-1.06.06-.55.18-2.75.29,13.52.32,26.11-.48,38.53-.11,3.66,1.13-10.85.28-6.66,1.23,17.91-.2,37.08-1.35,54.41-1.09l-3.23-.12c2.4-1.59,12.91.79,21.67.04-2.15.12-2.81.88-2.23.71,11.87.26,24.26-.39,42.24-.89l-2.23.41c6.99.36,18.42.21,25.97.4,2.24-.41,6.56-.34,3.94-.94,23.29,2.33,44.43-1.25,65.1.69-2.47,0-5.89.36-3.92.36l17.6-.38c-1.39-.69-2.31-.42-6.01-.96,2.23-.41,7.2-.73,11.56-.73-7.92.46.07,1.11,3.49,1.5-.57-.21.6-.45.31-.66,9.2,1.23,1.54-1.4,14.1-.56l-.66.36c4.7-.19,9.03-.67,14.1-.56,2.1.8-5,.37-5.32,1.03,7.12-.05,14.04-1.52,20.49-.72-3.02.22-7.37.23-10.39.45,7.02.94,7.83.7,13.04.85l-.51-.02,12.05.43-3.07-.25c8.91-2.09,18.14-.38,30.13-1.75-11.66,1.3-1.93.75-2.82,1.66,3.06.25,7.72.53,6.39.79,5.67-.73,9.47.58,17.47-.49.36.29,6.07.03,4.79.76,7.37-.23-1.74-.51-1.12-.88,11.36-1,26.71,1.21,43.06-.16,14.1-.56,16.7-1.55,29.78-2.04,4.41.47-3.62,1.07-3.62,1.07,7.12.43,12.48.35,19.19.02-1.36.25.04.47,2.09.8,5.39-.08,3.6-1.06,10.7-.63-1.22.33-2.78.85-5.38,1.18,6.35-.27,12.62-.82,19.19-1.08,1.74.51-3.97.77-6.28,1.11,7.38-.23,19.13-.46,21.41-1.27l-4.74-.29c2.69-.04,1.38.69-.6.84-6.33.63-9.13-.28-9.49-.57l4.68-.19c-4.81-1.72-18.8.28-28.21.18l3.93-1.25-9.66,1.04c-2.05-.32-3.46-1.02,1.19-1.21-6.75-.62-5.98.44-11.78-.24-.64-.11-.35-.17.24-.22l-6.6.37c1.29-.26-1.1-.88,2.96-.7-11.84-.72-19.1.94-23.56,0l.99-.08c-16.43.42-1.59.92-13.91,1.99l-8.29-2.26-1.62.92c-1.7-.03-5.05-.1-4.43-.47-6.31.63,1.08.4-2.59.99-8.16-.83-22.5.39-24.34-1.07-2.93.7,7.8.54-.91,1.02-2.48-1.57-10.07.27-17.52-.45,2.29-.81,9.35-.38,1.89-1.1-4.5,1.37-14.52-.3-20.8-.04-.3,1.09-13.67.46-24.22.82.67-.37-19.85-.6-29.67-.99l.29-.18c-1.9,1.1-12.03.89-19.4,1.12.29-.66,1.62-.92,5.61-1.22h-6.93c-1.64.36-3.8.54-8.29.67l1.74-.82c-9.22.05-18.57.97-30.44.42-.67.77,9.44,2.14-3.11,2.65-.47-.42-.93-1.13,2.35-1.3-1.08.05-3.84.35-6,.17l5.01-.7c-5.4-.31-2.83.58-7.15.52.09-.59-3.2-.42-2.58-.89,1.1-.06,3.77.25,5.42.01-4.87-.11-10.76-.46-12.71-.91.42.34,0,.8-3.57.87-9.22.04-3.16-.71-8.54-1.02-2.23.41-8.12-.02-8.27.87-2.7,0-3.2-.42-4.24-.66-4.77.39-22.3.11-16.92,1.05l1.22.06c-.23.02-.5.02-.78.04h.04-.04c-15.65.88-32.5-.5-48.03-.12l.02-.3c-9.27.34-20.63.2-27.24.84-2.74,0-6.47-.54-5.3-.89-7.08.22-7.88.56-18.11.07,7.12-.52-2.46-.46,7.3-.38-9.2-.26-11.29-.73-21.17.08,3.36-.76-6.93-.96-11.31-.73l6.45.54c-4.92.11-9.22.04-13.59-.02l2.36-1c-18.84-1.21-33.97,2.07-48.31.03-4.98.7,10.23.49,5.77,1.31-8.66-.13-17.69-1.57-20.41-1.57-11.87-.55-11.07,1.46-23.49,1.08,1.59.36,3.09,1.31-6.19,1.64-8.67-.13-10.66-1.49-5.18-1.78,2.08-.03,3.08.08,2.99.2,2.8-.13,6.48-.28,3.04-.67l-1.13.36c-4.3-.36-16.23-.33-13.43-.91-6.55.34-2.8.58,2.05.77-11.12-.52-17.38-.02-28.82-.36,1.82.2,3.5.61,1.68.61-16.79-.44-7.39.68-18.77.83-6.46-.54,2.32-1.3-9.14-.84-6.99-.37-1.48-.94,1.3-1.23-10.43.69-19.5-.45-25.45-.58l5.5-.29c-3.29.17-5.98.17-8.72.16l3.14.71c-3.23-.12-5.96-.13-5.9-.42-3.33.47,2.55,1.18-4.05,1.82-4.3-.36-13.1.39-14.59-.56,13.53.32-1.49-.95,9.96-1.1-2.21.11-4.9.11-8.14-.02-.49-.11.46-.2,1.34-.25-12.95-.84-5.95,1.07-19.37,1.05,1.7-.53-3.11-1.01-5.3-.9,5.41.01,2.59.89-2.37,1.3-8.6-.41-9.35.31-13.86.26l5.14.2c-1.74.53-6.04.46-12.04.63-.51-.41,5.45-.28,3.31-.47-6.66.94-15.05-.97-24.33-.34-4.3-.36-.42-1-4.19-1.25-10.41.69-11.27-.73-22.21-.16,3.15.72,3.7.54-4,1.24l17.98-.5-11.54,1.04c5.43.01,11.45-.45,14.7-.33-5.5.58-4.93.41-2.34,1-7.43-1.07-14.72.63-23.31-.1l.26-1.77c-12.91-.79-22.93.91-39.69.46l5.39.31c-2.25.7-10.35.1-15.77.38.5-.59-2.89-.81-5.2-1.18.28.44-12.27-.04-13.79,1.14l-7.48-.78c-13.53-.32-15.44,1.69-28.45,1.49,3.92-.64-1.99-1.06,6.72-1.52-4.34,0-8.25-.11-8.32.3-2.54-.37-12.04.8-16.03.23-1.83.26-2.43.88-7.3.83-.53-.12.02-.29.02-.29-.02.29-7.63.4-3.37,1.05-13.38-1.85-37.39.13-49.04-1.45-9.48.2-20.9.39-29.5.43.55-.18.03-.3,1.65-.23-11.87-.55-7.3,1.7-20.8,1.09-6.9-.96,7.17-.52,2.87-.88-1.87-1.95-16.3.27-25.39-.87l2.2-.11c-6.95-.66-16.95.74-28.3.6,0,0,.55-.17.07-.29-7.76.99-22.46,1.32-33.38,1.6,3.4-.76,4.96-.4,2.89-1.18-4.89.11,1.43,1.24-8.34,1.46-3.18-.42-10.22-.78-11.16-1.61l9.22-.04c-4.72-1.07-11.93.04-16.78-.15l.62-.47c-14.12.15-14.32,1.33-29.5,1.25l1.57.35c-8.29,1.17-6.95-.66-15.23.21l-2.5-1.18c-5.47.29-19.17,1.15-28.99,1.37,5.56-.88,17.05-1.33,24.16-1.85-5.43,0-18.44.09-21.27.67,2.19-.11,4.94-.4,7.1-.22-6.66.93-15.41,1.39-26.23,1.37,1.92-2.3-28.18-.58-36.02-2.36-19.13.85-37.94-.36-60.23-.23,7.9,1.79-6.5.05-5.14,1.89-5.19.12-7.17.09-7.63-.03l-15.73-1.1c-3.73-.53,4.94-.4,4.46-.82-11.36-.14-4.77-.78-12.29-1.26,1.54.66-3.95.94-10.43.69l9.12.85c-15.88.98-13.73-1.54-29.73-.57l5.06-.58c-8.21.34-30.3-.01-38.35,1.46-1.45-.21-3.37-.71.24-.85-19.63-.22-43.7,1.57-58.96.66l1.49-.45c-3.66.13-6.38.84-10.96.39.24-.19,1.48-.45-.22-.47-1.94.15-9.73.79-14.58.52l4.15-.5c-19.15-.59-29.39,1.23-45.44,1.54.04-1.32-15.03-1.75-22.55-1.96l.26-.19c-22.3-.16-37.87,1.09-58.52,1.61-12.82-1.43-43.42-.6-64.02-1.4,3.15.24-.51,1.03-4.17,1.16-4.83-.27-13.36.92-12.6-.29l1.72.02c-3.64-1.19-13.58-.87-21.33-.9l-1.28,1.58c-20.29-2.3-53.16.85-64.24-1.22-4.89.4-10.96.39-15.81.79l.26-.85c-13.57-.22-20.34-.32-37.11-.12l3.42-.61c-9.46-.06-11.94,2.45-20.67,2.5l-2.63-1.27c-16.5.02-33.2-1.09-49.51.06.27-.19.75-.55,3.42-.6-7.77-.03-30.05-.86-27.22.88-.19-1.13-17.02-.11-25.94.39l1.39-.84c-7.52,1.07-7.76,1.36-18.27,1.66-2.49-.11-2.18-.67,1.12-.46-8.29-.44-6.46.79-16.52.35l3.75-.53c-8.53-.06-7.86.22-12.55.84-5.37.34-16.19-.21-17.45-.97-1.15.46-5.82,1.08-10.85.86-.68-.29,1.15-.46,2.07-.55-14.27-.57-21.22.97-31.03.15-.2-.28-.84-.42-1.66-.5,11.34.02,20.47.07,19.61.13,0-.77-9.16-.91-1.87-1.97-7.35.58-19.92,1.84-28.85,1.48-.43-.07-.85-.15-1.18-.27l.92-.09c-2.06-.08-3.9,0-5.64.12-2.85-.13-4.66-.22-7.39-.23-1.06-.64-10.5-.34-15.07-.38.38.84-5.6.71,0,1.4-.73-.06.86-.1,3.9-.14.69-.02,1.49-.04,1.95-.09-.09.02-.2.05-.31.07,3-.02,6.91-.04,11.35-.06-3.61.43-7.38.79-12.43.32-2.34.54-4.92,1.1-6.38,1.36-6.25-1.18-18.29-1.81-19.97-2.54-13.94.47-32.84.31-41.61,1.9-3.97.2-4.56-.45-6.04-.7,2.29-.16,5.01-.13,6.25-.36-7.93.41-23.48.16-25.37,1.26-9.99-.5,5.61-1.02-8.11-.84l1.85-.34c-27-1.77-43.9,2.83-73.84.55,2.07.14,3.11.2,3.54.39-34.13-1-70.34.94-104.02-.65-9.57-.32-10.61.39-16.45.92l-2.07-.91-9.99,1.04c-14.17.77-24.53-2.22-42.47-.78l2.31.61c-6.44-.11-20.4.36-19.33-.34-.66.11-2.11.64-4.63.32l-.2-.47-15.82.81c-12.27-.34,1.92-1.88-15.98-1.97-6.65.18-18.95,1.38-16.45,1.7,2.69.02,6.86.3,7.06.77l-6.09.25c-1.1,1.4-5.78,2.83,9.16,3.8l10.41-.85,3.35.68-8.76.04c4.97.64,8.12.07,11.65-.31.84.36,2.3.61,4.36.75l10.22-1.33c1.24.55-4.58,1.08,2.27,1.39,4.79-.62-4.59-1.23,3.33-1.63,4.98.63,3.53,1.15,9.37.61.82.36-.42.59-2.73.75,5.2-.43,13.77-.18,16.45-.92,5.19.78,17.57-.2,17.05,1.12,1.64-.32,9.16-1.04,13.94-1.09-8.73,1.58,17.89.09,15.58,1.79,6.46-1.42,23.34-.63,34.78-1.42-.64.11-1.9.34-2.91.27,6.44.12,8.31.55,12.45.82.83-1.18,10.86-1.44,16.27-2.17,7.89,1.13-4.8,1.38-2.32,2.47-.4-.95,13.72-.95,11.03-1.74,6.04.7,5.2.34,8.31,1.32,1.06-1.47,5.62-.25,10.63-1.15,8.74.72,2.25,1.38,11.85.93,4.57.45-3.97.97-3.97.97Zm228.3-2.54v.02c-1.97.02-3.64.04-4.71.05.98-.01,2.34-.03,4.71-.06Zm19.19-.01c-2.34-.03-5.24-.04-8.32-.03-.67-.29.06-.59,1.99-.58-1.05.19,3.47.36,6.34.61Zm-40.58-5.84c3.04-.12,4.05.05,4.47.22-1.43.01-3.11.04-5.31.1-.09.03-.27.07-.36.1.29-.16.62-.31,1.2-.42Z"/>
        <path class="cls-14" d="m429.64,2.35c-.44.02-.68.05-1.25.06.62.07,1.21.14,1.81.19.37-.09.75-.18,1.08-.26-.55,0-1.12,0-1.64.01Z"/>
        <path class="cls-14" d="m2168.81,3.6l-.41-.02c.34.03.65.07.85.12-.27-.04-.27-.07-.44-.1Z"/>
        <polygon class="cls-14" points="740.61 8.7 740.58 8.49 738.9 8.67 740.61 8.7"/>
        <path class="cls-14" d="m2274.48,6.49c.2.07.6.15,1.39.22-.06-.06-.66-.13-1.39-.22Z"/>
        <path class="cls-14" d="m2320.13,6.68l6.46.3c-2.79-.17-4.83-.25-6.46-.3Z"/>
        <path class="cls-14" d="m2355.22,7.1c.44-.15.57-.26.69-.36-.03,0-.05,0-.07,0l-.62.37Z"/>
        <path class="cls-14" d="m1797.22,8.09c-.47,0-.94.02-1.35.04-3.18.16-1.02.1,1.35-.04Z"/>
        <path class="cls-14" d="m1963.28,6.12c-1.76.15-3.5.3-5.34.4,2.96.06,5.25.08,5.34-.4Z"/>
        <path class="cls-14" d="m1611.8,9.11s0,0,.02-.01c-.4,0-.75,0-1.14,0h1.13Z"/>
        <path class="cls-14" d="m1950.22,6.51c2.96.17,5.43.13,7.72.01-2.42-.06-5.28-.14-7.72-.01Z"/>
        <path class="cls-14" d="m2507.33,7.48l1.69.03c-.03-.06.07-.1.2-.14l-1.89.1Z"/>
        <path class="cls-14" d="m2509.22,7.38l1.88-.1c-.86,0-1.61,0-1.88.1Z"/>
        <path class="cls-14" d="m2515.05,7.07l-3.95.21c1.37,0,3.06.03,3.95-.21Z"/>
        <path class="cls-14" d="m2460.87,7.09l-.53.31c.29-.06.48-.16.53-.31Z"/>
        <path class="cls-14" d="m2446.75,7.18c3.37.07,8.45.65,13.15.46l.44-.24c-2.21.46-10.39-.73-13.59-.22Z"/>
        <path class="cls-14" d="m2387.82,3.4l11.83.24c-2.07-.33-4.79-.76.59-.84-14.91-.97,3.08.73-12.42.6Z"/>
        <path class="cls-14" d="m2351.14,2.93c6.36-.15-.07-.47.26-.66-4.03.3-5.01.37-.26.66Z"/>
        <path class="cls-14" d="m2086.05,2.93l.64-.77c-4.9.11-.05.3-.64.77Z"/>
        <polygon class="cls-14" points="2035.37 6.89 2040.14 7.37 2042.41 6.67 2035.37 6.89"/>
        <polygon class="cls-14" points="2005.44 1.43 2007.58 1.32 1999.4 1.6 2005.44 1.43"/>
        <path class="cls-14" d="m1560.22,1.7l1.48.95c3.31-.17,4.01-1.23-1.48-.95Z"/>
        <path class="cls-14" d="m1368.01,2.66c-2.09-.47-7.5-.78-10.83-.31,4.32.06,8.63.43,10.83.31Z"/>
        <polygon class="cls-14" points="791.58 1.12 795.45 .81 788.16 1.07 791.58 1.12"/>
      </g>
      <g>
        <path class="cls-14" d="m2418.85,422.35c1.27-.26.55-.84-2.95-.73l-2.49.99,5.45-.27Z"/>
        <path class="cls-14" d="m2395.25,420.53c-4.12.48-8.88,1.33-6.21,2.24,4.08-.96,5.07-.56,9.47-1.7,3.51-.12,6.13.31,5.54.68,1.24-.26,5.45.22,7.34-.41-4.57-.77-10.35-.79-16.4-.15-1.3-.22-.04-.48.26-.66Z"/>
        <path class="cls-14" d="m2052.28,419.19l2.21.12c-.6-.06-1.36-.1-2.21-.12Z"/>
        <path class="cls-14" d="m1839.77,418.78c1.62-.02,2.29-.12,2.38-.21-1.5.07-2.74.13-2.38.21Z"/>
        <path class="cls-14" d="m1803.49,417.71c.78.03,1.43.04,2.14.07-.82-.09-1.64-.14-2.14-.07Z"/>
        <path class="cls-14" d="m2052.28,419.19l-5.68-.31c-.4.32,2.91.24,5.68.31Z"/>
        <path class="cls-14" d="m2347.96,422.95c1.19-.05,2.18-.14,3.08-.26-.98.04-1.92.08-2.9.11-.05.05-.1.1-.19.16Z"/>
        <path class="cls-14" d="m2145.95,418.33h1.73c.51-.12.98-.25,1.43-.41l-3.16.41Z"/>
        <path class="cls-14" d="m2217.85,418.13c-1.63-.04-2.19.81-2.81,1.18.92-.35,2.12-.51,3.55-.58.03-.16-.19-.35-.73-.6Z"/>
        <path class="cls-14" d="m2331.84,419.54l2.02-.12c-.53.04-1.41.07-2.02.12Z"/>
        <path class="cls-14" d="m2094.5,418.18c-.12-.12-.38-.23-.66-.3,0,.1.26.21.66.3Z"/>
        <path class="cls-14" d="m83.69,425.76c.06-.06-.02-.1,0-.15-.42.08-.55.15,0,.15Z"/>
        <path class="cls-14" d="m.35,421.64l1.16-.05c.12-.16.25-.32.25-.47l-1.4.52Z"/>
        <path class="cls-14" d="m1737.09,416.67c.13,0,.17,0,.29.02,1.75-.1.76-.08-.29-.02Z"/>
        <path class="cls-14" d="m1127.53,417.67c6.91.75-11.24.98-.84,1.81-.97-.33,9.45-1.32.84-1.81Z"/>
        <path class="cls-14" d="m2346.1,422.84c-.97.01-1.96.02-2.95.01,1.34.03,2.25.02,2.95-.01Z"/>
        <path class="cls-14" d="m1126.69,419.47h0s1.07.08,1.07.08c-.44-.03-.69-.06-1.07-.08Z"/>
        <path class="cls-14" d="m1584.1,417.27c.31.15.92.26,1.56.37-.05-.09-.41-.19-1.56-.37Z"/>
        <path class="cls-14" d="m1698.07,418.4l-2.82-.11c1.12.08,2.03.1,2.82.11Z"/>
        <path class="cls-14" d="m1524.92,418.5c-1.53-.06-2.05-.18-4.15-.07.19.04.39.07.64.1.76-.12,1.77-.17,3.51-.04Z"/>
        <path class="cls-14" d="m1463.32,418.54c.33.06.76.11,1.14.17.61-.02,1.32-.03,1.95-.05l-3.09-.12Z"/>
        <path class="cls-14" d="m270.88,425.24c-1.35-.24-2.19-.5-2.84-.76.95.6-8.1.82,2.84.76Z"/>
        <path class="cls-14" d="m2347.93,422.48c-.36.21-.89.32-1.83.36.71,0,1.39-.03,2.05-.05.18-.13.22-.24-.22-.32Z"/>
        <path class="cls-14" d="m1522.42,425.15l-9.79-.12c2.74.08,6.29.12,9.79.12Z"/>
        <path class="cls-14" d="m712.78,424.84l-2.25.1c.87.02,1.66,0,2.25-.1Z"/>
        <path class="cls-14" d="m1483.59,425.17c-1.75-.3-3.6-.47-5.51-.58-.41.07-.87.12-1.14.22l6.65.36Z"/>
        <path class="cls-14" d="m268.02,424.47s.02,0,.02,0c0,0,0,0-.02,0Z"/>
        <path class="cls-14" d="m203.56,426.52c9.33.02,4.38-1.09,6.36-1.72,11.13-.32,5.15.81,8.94,1.38,6.95-.3,12.28-1.32,17.46-1.28.39.18,1.39.25.21.48,7.35-.89,21.81-.06,30.37-1.17.64.1.96.19,1.12.27-1.39-.55-1.6-1.12-1.32-1.52,4.18-.02,7.76-.71,9.33.02-2.56-.02-2.78.27-3.97.5l4.38-.32c3.94,1.04-5.98.36-5.98,1.13,8.54-.34,18.5-1.21,25.04-.92,1.37,1.02-15.3.35-6.57,1.25l-10.13-.38c7.74,1.6-6.15-.11.96,1.61,13.33.29,14.91-.53,28.2-.24,2.99-.57-.99-.84,2-1.41,18.9-1.03,14.88,2.55,28.77,1.19,3.6-.68,4.99-1.97,14.88-1.3l-3.37,1.15c12.9.11,7.36-1.66,20.88-.89-2.4.45-10.14.39-8.19.52,8.76.9,6.19-.66,12.92-.66l1.4,1.02c13.74-.17,28.87-.92,44.08-1.11-.84.3-3.45.62.11.93,19.19-.52,40.96.1,59.47.69l7.07-.88c1.64,0,3.05.4,1.27.57,7.21.33.37-.56,3.84-.91,4.1-.06,5.42.5,2.82.77,12.73-.75,36.26-1.63,49.67-.7l-2.61.26c10.44.35,11.78-1.81,21.47-1l-1.86.16c22.67.37,47.71-.45,65.01.86,3.29-1.27,22.43.55,23.89-1.22,12.94.87,9.24,1.19,27.46,1.76,4.87.08,7.25-1.11,13.27-1.3l.15.92,8.17-.98,4.35,1.1,5.65-.24c-2.25-.05-4.78-.41-4.44-.68,8.82-.42,21.5.63,21.71,1.1l20.86-.79c-.46.37-3.96.5-6.72.74,11.13-.95,2.02.97,12.23.1-1.37-.21.74-.55.97-.74,5.09.56,16.67.55,25.23.31l-1.64.64c15.47.15,32.62-.33,49.99-.33-6.23-.29-4.8-1.4.29-1.51l2.04.98c3.29-.61-5.32-.37,1.43-1.11,6.49.11,4.36,1.11.64,1.43l7.89-.34c.46.29-1.39.45-1.87.82,3.24-.61,13.61.97,18.28-.08l.44.29c17.36,0,25.23-.34,39.37-.4.28-.84,5.81-.66,10.02-1.34,10.39.26,21.93.92,34.45.84,8.8-.43,2.57-.72,6.53-1.22.65.77,13.15.69,6.67,1.24,15.03-.13,19.2-.17,38.2-.8-2.06-.31-4.38-.45-3.18-.71,3.45-.13,7.85.32,7.35.69l-.91.08c21.33-1.17,49.24,2.21,66.23.6l-.95.08,17.62-.85c8.1.13-4.86.58,1.14,1.05,19-1.29,30.03.17,45.67-.7,12.12,2.26,42.99-.19,59.34,1.25l-.94-.53c4.22-.53,5.11.3,8.23.42-.44-.41-4.59-.48-1.96-.77,35.8-.67,73.89.73,110.59,1.19,13.42.14,7.62-2.77,24.54-1.5l-4.8.99c27.09-1.21,55.39,0,81.91-1.02-1.58.23-1.63.53-4.21.52,5.6.72,20.71.02,20.81-.57,4.13.06.96.53,3.5.83,5.62.42,14.1-.93,17.09-.21.51.12-1.58.23-2.61.29,3.66-.35,17.06.08,13.55-.75,9.95.39,19.04-.38,26.98.11,5.18-.93,17.04.44,18.68-.88-.71,1.36,17.45,1.08,23.74.44-2.11.41,5.47.42,3,.99,7.18-.02,13.76-.28,12.51-.98,13.23,1.62,26.59-1.32,34.05.75,21.33-.74,41.08-1.25,60.27-1.58-.69,1.35-21.21.15-20.39,1.57,18.21-.57,28.71-1.74,46.76-1.42,4.67.18-2.65.59-4.23.82,18.19-.57,35.17.1,51.35-.65-.04.13-1.79.27-3.44.37,3.19-.05,7.42.19,7.06-.42l-3.11.17c-5.09-.89,12.67-1.87,13.24-2.34-5.41,1.77,15.99.43,7.39,2.67,2.1-.12,4.73-.41,4.25-.82,3.11.12,4.1.36.94.83,11.42-.34,7.37-.99,17.72-.99-.04.3-2.13.41-3.2.77,5.24-.58,10.51-1.17,19.25-.92-.53.18.49.41-2.12.41,15.02-.1,25.61-1.56,42.09-1.01-4.86,1.3,5.61.42,6.48,1.54l8.86-.34-3.56-.54c7.76.01,14.62-.81,21.3-.44l-5.77.47,14.55-.22-8.23-.42c7.85-.58-.84-1.42,9.49-1.11-2.1.12,7.77,0,11.81.67,0,0-.03,0-.03,0,3.84-.36,7.79-.74,13.53-.46,1.49.36-1.2,1.24-.23,1.48,3.79-.94,18.18-.27,22.98-1.27-1.6.24-1.68.82-1.16.94l3.18-.76c3.6.24,4.12.36,3.54.83,10.82.13-3.44-1.42,9.4-.81-1.01.06-.53.18-2.63.29,12.9.31,24.91-.5,36.76-.13,3.5,1.12-10.35.28-6.35,1.23,17.08-.21,35.37-1.37,51.9-1.12l-3.08-.12c2.29-1.59,12.31.78,20.67.02-2.05.12-2.68.88-2.13.71,11.32.25,23.15-.41,40.3-.92l-2.13.41c6.67.36,17.57.2,24.78.38,2.14-.41,6.26-.35,3.76-.94,22.22,2.31,42.39-1.27,62.1.65-2.36,0-5.62.36-3.74.36l16.79-.39c-1.33-.69-2.2-.42-5.73-.96,2.13-.41,6.87-.73,11.03-.74-7.55.46.07,1.11,3.33,1.5-.55-.21.57-.45.29-.66,8.77,1.23,1.47-1.4,13.45-.57l-.63.36c4.48-.19,8.61-.67,13.45-.57,2.01.8-4.77.38-5.08,1.04,6.79-.05,13.4-1.53,19.54-.73-2.88.23-7.03.23-9.91.46,6.69.94,7.47.7,12.44.84l-.49-.02,11.5.42-2.93-.25c8.5-2.1,17.3-.39,28.75-1.77-11.12,1.3-1.84.75-2.69,1.66,2.92.25,7.37.53,6.1.79,5.41-.74,9.03.57,16.66-.5.34.29,5.79.02,4.57.76,7.03-.23-1.66-.51-1.07-.88,10.84-1.01,25.48,1.2,41.08-.18,13.45-.57,15.93-1.56,28.41-2.06,4.21.47-3.45,1.07-3.45,1.07,6.8.43,11.91.34,18.31,0-1.3.26.04.47,1.99.8,5.14-.08,3.43-1.07,10.21-.64-1.16.33-2.65.85-5.13,1.18,6.06-.27,12.03-.82,18.3-1.09,1.66.51-3.78.78-5.99,1.11,7.04-.23,18.25-.47,20.43-1.28l-4.52-.29c2.57-.04,1.32.69-.57.84-6.04.64-8.71-.27-9.05-.57l4.46-.19c-4.59-1.71-17.93.29-26.92.19l3.75-1.25-9.22,1.04c-1.96-.32-3.3-1.02,1.14-1.21-6.44-.61-5.7.45-11.24-.24-.61-.11-.33-.17.23-.22l-6.29.38c1.23-.26-1.05-.88,2.82-.7-11.3-.71-18.22.95-22.47,0l.94-.08c-15.68.43-1.51.92-13.27,2l-7.91-2.25-1.54.92c-1.62-.03-4.82-.1-4.23-.47-6.02.63,1.03.4-2.47.99-7.78-.83-21.46.4-23.22-1.05-2.79.7,7.44.53-.86,1.02-2.37-1.57-9.61.27-16.72-.44,2.18-.81,8.92-.39,1.8-1.1-4.29,1.37-13.85-.29-19.85-.03-.28,1.09-13.04.46-23.11.83.64-.37-18.94-.59-28.3-.98l.28-.18c-1.81,1.1-11.47.9-18.5,1.13.28-.66,1.54-.92,5.35-1.22h-6.61c-1.56.36-3.62.55-7.91.68l1.66-.82c-8.8.05-17.72.98-29.04.44-.64.77,9.01,2.13-2.97,2.65-.44-.42-.89-1.12,2.25-1.3-1.03.06-3.66.35-5.73.17l4.78-.7c-5.16-.3-2.7.59-6.82.52.08-.59-3.05-.42-2.46-.89,1.05-.06,3.6.24,5.17,0-4.65-.1-10.27-.45-12.12-.9.41.34,0,.8-3.4.88-8.8.05-3.01-.71-8.15-1.01-2.13.41-7.74-.01-7.89.88-2.58,0-3.05-.42-4.05-.65-4.55.39-21.27.12-16.14,1.06l1.17.06c-.22.02-.48.02-.74.04h.04-.04c-14.93.89-31.01-.48-45.82-.09l.02-.3c-8.84.34-19.68.21-25.99.85-2.61,0-6.17-.54-5.05-.89-6.76.23-7.52.56-17.28.08,6.79-.52-2.34-.46,6.96-.38-8.78-.25-10.77-.72-20.2.09,3.21-.76-6.61-.95-10.79-.72l6.15.54c-4.69.11-8.8.05-12.97-.01l2.25-1c-17.97-1.2-32.41,2.09-46.09.06-4.75.7,9.76.49,5.51,1.3-8.27-.13-16.88-1.56-19.47-1.56-11.32-.55-10.56,1.46-22.41,1.09,1.52.35,2.95,1.3-5.91,1.64-8.27-.13-10.17-1.49-4.95-1.78,1.98-.03,2.94.08,2.86.2,2.67-.13,6.18-.29,2.9-.67l-1.07.36c-4.1-.36-15.48-.32-12.81-.9-6.25.34-2.67.59,1.96.77-10.61-.51-16.58,0-27.5-.34,1.74.2,3.34.61,1.61.61-16.02-.43-7.05.68-17.91.84-6.17-.54,2.21-1.3-8.72-.84-6.67-.36-1.41-.94,1.24-1.24-9.95.69-18.6-.44-24.28-.56l5.24-.29c-3.14.17-5.7.17-8.32.17l2.99.71c-3.08-.12-5.68-.12-5.63-.42-3.17.47,2.43,1.18-3.87,1.82-4.1-.36-12.5.4-13.92-.55,12.91.31-1.43-.95,9.5-1.11-2.11.11-4.68.11-7.77-.01-.46-.11.44-.2,1.28-.25-12.35-.84-5.68,1.07-18.48,1.06,1.63-.53-2.97-1.01-5.06-.89,5.16,0,2.47.89-2.26,1.3-8.21-.41-8.92.31-13.22.27l4.91.19c-1.66.53-5.77.47-11.49.64-.49-.41,5.2-.29,3.15-.47-6.35.94-14.36-.96-23.21-.32-4.1-.36-.4-1-4-1.24-9.93.7-10.75-.72-21.19-.15,3.01.71,3.53.54-3.81,1.24l17.15-.51-11.01,1.05c5.18,0,10.92-.46,14.03-.34-5.25.59-4.71.41-2.23,1-7.08-1.07-14.04.63-22.23-.09l.25-1.77c-12.31-.78-21.87.92-37.86.49l5.14.31c-2.14.71-9.87.1-15.05.39.48-.59-2.75-.81-4.96-1.17.27.44-11.7-.03-13.15,1.15l-7.14-.78c-12.91-.31-14.73,1.7-27.14,1.5,3.74-.65-1.9-1.06,6.41-1.53-4.14,0-7.87-.11-7.93.3-2.42-.37-11.49.8-15.3.24-1.75.26-2.32.88-6.97.84-.51-.12.02-.29.02-.29-.02.29-7.28.4-3.22,1.06-12.76-1.84-35.67.16-46.78-1.42-9.04.21-19.93.4-28.14.45.53-.18.03-.3,1.58-.23-11.32-.54-6.96,1.71-19.84,1.1-6.58-.95,6.84-.52,2.74-.88-1.79-1.95-15.55.28-24.22-.86l2.1-.12c-6.63-.66-16.17.75-27,.62,0,0,.53-.17.06-.29-7.4,1-21.42,1.34-31.84,1.62,3.24-.76,4.73-.41,2.75-1.18-4.67.11,1.37,1.24-7.95,1.47-3.03-.42-9.75-.78-10.65-1.6l8.79-.05c-4.5-1.07-11.38.04-16.01-.14l.59-.47c-13.47.16-13.66,1.34-28.14,1.26l1.5.35c-7.91,1.17-6.63-.65-14.53.22l-2.39-1.18c-5.22.29-18.29,1.16-27.65,1.38,5.31-.88,16.26-1.34,23.04-1.86-5.18,0-17.59.1-20.29.68,2.09-.12,4.71-.41,6.77-.23-6.35.94-14.7,1.4-25.02,1.38,1.83-2.3-26.89-.56-34.37-2.34-18.25.86-36.2-.34-57.46-.19,7.54,1.78-6.21.05-4.9,1.89-4.95.12-6.84.09-7.28-.03l-15.01-1.09c-3.56-.53,4.71-.41,4.25-.82-10.84-.13-4.55-.77-11.72-1.26,1.47.66-3.77.94-9.95.7l8.7.84c-15.15.99-13.1-1.53-28.37-.56l4.83-.58c-7.84.35-28.91,0-36.59,1.48-1.39-.21-3.22-.71.23-.85-18.73-.21-41.69,1.59-56.24.7l1.42-.45c-3.49.13-6.08.85-10.46.4.23-.19,1.41-.45-.21-.47-1.85.16-9.28.79-13.91.53l3.96-.51c-18.27-.58-28.03,1.25-43.35,1.56.04-1.32-14.34-1.74-21.51-1.95l.25-.19c-21.27-.15-36.13,1.12-55.83,1.65-12.23-1.43-41.42-.57-61.07-1.37,3,.24-.49,1.03-3.98,1.16-4.61-.26-12.75.92-12.02-.29l1.64.02c-3.48-1.19-12.95-.86-20.35-.89l-1.22,1.58c-19.36-2.29-50.71.88-61.28-1.18-4.67.4-10.46.4-15.09.8l.25-.85c-12.94-.21-19.4-.31-35.4-.1l3.26-.61c-9.02-.05-11.39,2.46-19.71,2.51l-2.51-1.27c-15.74.03-31.68-1.07-47.23.09.25-.19.72-.55,3.27-.61-7.41-.03-28.66-.84-25.97.9-.18-1.13-16.24-.1-24.74.4l1.32-.84c-7.18,1.07-7.4,1.37-17.42,1.67-2.38-.11-2.08-.67,1.07-.46-7.91-.43-6.17.8-15.76.36l3.57-.54c-8.14-.06-7.49.23-11.98.85-5.12.34-15.44-.2-16.65-.96-1.1.46-5.56,1.08-10.35.87-.65-.29,1.1-.46,1.98-.55-13.61-.56-20.24.98-29.6.17-.19-.28-.81-.42-1.58-.5,10.81.01,19.52.05,18.71.12,0-.77-8.74-.9-1.79-1.97-7.01.59-19,1.86-27.52,1.5-.41-.07-.82-.15-1.13-.27l.88-.09c-1.97-.08-3.72,0-5.38.13-2.72-.12-4.44-.22-7.05-.23-1.01-.64-10.02-.34-14.37-.37.36.84-5.34.71,0,1.4-.69-.06.82-.1,3.72-.14.66-.03,1.43-.04,1.86-.09-.08.02-.19.05-.3.07,2.86-.03,6.59-.05,10.83-.06-3.44.43-7.04.79-11.85.33-2.24.54-4.69,1.1-6.08,1.36-5.96-1.17-17.45-1.8-19.05-2.53-13.3.48-31.33.33-39.69,1.92-3.78.21-4.35-.45-5.76-.7,2.18-.16,4.78-.14,5.96-.37-7.56.41-22.4.17-24.21,1.28-9.53-.49,5.36-1.02-7.74-.83l1.77-.34c-25.76-1.75-41.88,2.85-70.44.6,1.98.14,2.97.2,3.37.39-32.56-.98-67.1.98-99.23-.59-9.13-.31-10.12.39-15.7.93l-1.98-.9-9.53,1.05c-13.51.77-23.4-2.21-40.51-.75l2.21.61c-6.15-.11-19.46.37-18.44-.33-.63.11-2.01.64-4.42.32l-.19-.47-15.09.82c-11.7-.34,1.83-1.88-15.25-1.96-6.35.19-18.07,1.39-15.69,1.71,2.56.02,6.54.29,6.74.77l-5.81.25c-1.05,1.4-5.51,2.83,8.74,3.8l9.93-.86,3.2.68-8.36.05c4.74.63,7.75.07,11.11-.32.8.36,2.19.61,4.16.74l9.75-1.34c1.18.55-4.37,1.09,2.17,1.38,4.57-.62-4.38-1.22,3.18-1.63,4.75.63,3.37,1.15,8.94.6.78.36-.4.59-2.61.75,4.96-.43,13.13-.19,15.7-.93,4.95.78,16.76-.21,16.27,1.11,1.56-.32,8.74-1.04,13.3-1.1-8.33,1.59,17.06.08,14.86,1.78,6.16-1.43,22.26-.65,33.18-1.44-.61.11-1.81.34-2.77.27,6.15.12,7.93.54,11.88.81.79-1.18,10.36-1.45,15.52-2.18,7.53,1.13-4.57,1.38-2.21,2.47-.38-.95,13.09-.96,10.52-1.75,5.76.7,4.96.34,7.93,1.31,1.01-1.47,5.36-.25,10.14-1.16,8.34.72,2.15,1.38,11.3.92,4.36.45-3.79.97-3.79.97Zm217.79-2.68v.02c-1.88.02-3.48.04-4.5.05.94-.01,2.23-.03,4.5-.07Zm18.3-.02c-2.23-.03-5-.04-7.94-.03-.64-.29.05-.59,1.89-.58-1,.2,3.31.36,6.05.6Zm-38.72-5.82c2.9-.12,3.87.04,4.26.22-1.37.02-2.97.04-5.07.1-.08.03-.26.07-.34.1.28-.16.59-.31,1.14-.42Z"/>
        <path class="cls-14" d="m395.73,419.11c-.42.02-.65.05-1.19.06.59.07,1.15.14,1.73.19.35-.09.71-.18,1.03-.26-.53,0-1.07,0-1.56.01Z"/>
        <path class="cls-14" d="m2054.87,419.33l-.39-.02c.32.03.62.07.81.12-.26-.04-.26-.07-.42-.1Z"/>
        <polygon class="cls-14" points="692.39 425.27 692.37 425.06 690.77 425.25 692.39 425.27"/>
        <path class="cls-14" d="m2155.68,422.16c.19.07.57.15,1.32.22-.06-.06-.63-.13-1.32-.22Z"/>
        <path class="cls-14" d="m2199.22,422.32l6.16.3c-2.66-.17-4.61-.25-6.16-.3Z"/>
        <path class="cls-14" d="m2232.7,422.72c.42-.15.54-.26.65-.36-.03,0-.04,0-.07,0l-.59.37Z"/>
        <path class="cls-14" d="m1700.38,424.04c-.45,0-.89.02-1.29.04-3.03.17-.97.1,1.29-.04Z"/>
        <path class="cls-14" d="m1858.8,421.97c-1.68.15-3.34.31-5.09.4,2.82.06,5.01.08,5.09-.4Z"/>
        <path class="cls-14" d="m1523.49,425.16s0,0,.02-.01c-.38,0-.71,0-1.09,0h1.07Z"/>
        <path class="cls-14" d="m1846.34,422.36c2.82.17,5.18.13,7.37.01-2.31-.06-5.04-.14-7.37-.01Z"/>
        <path class="cls-14" d="m2377.81,423.01l1.61.03c-.03-.06.07-.1.19-.14l-1.8.1Z"/>
        <path class="cls-14" d="m2379.61,422.91l1.79-.1c-.82,0-1.54,0-1.79.1Z"/>
        <path class="cls-14" d="m2385.18,422.59l-3.77.21c1.3,0,2.91.03,3.77-.21Z"/>
        <path class="cls-14" d="m2333.49,422.65l-.51.31c.28-.06.45-.16.51-.31Z"/>
        <path class="cls-14" d="m2320.02,422.74c3.21.07,8.06.65,12.54.45l.42-.24c-2.11.46-9.91-.73-12.96-.21Z"/>
        <path class="cls-14" d="m2263.8,419l11.29.24c-1.97-.32-4.57-.76.57-.84-14.23-.96,2.94.73-11.85.6Z"/>
        <path class="cls-14" d="m2228.81,418.55c6.06-.16-.07-.47.25-.66-3.85.3-4.78.38-.25.66Z"/>
        <path class="cls-14" d="m1975.91,418.7l.61-.77c-4.67.11-.04.3-.61.77Z"/>
        <polygon class="cls-14" points="1927.57 422.7 1932.12 423.17 1934.29 422.47 1927.57 422.7"/>
        <polygon class="cls-14" points="1899.01 417.25 1901.05 417.14 1893.26 417.42 1899.01 417.25"/>
        <path class="cls-14" d="m1474.28,417.79l1.41.94c3.16-.17,3.82-1.23-1.41-.94Z"/>
        <path class="cls-14" d="m1290.92,418.86c-2-.47-7.16-.77-10.33-.31,4.12.06,8.23.43,10.33.31Z"/>
        <polygon class="cls-14" points="741.02 417.66 744.7 417.34 737.75 417.61 741.02 417.66"/>
      </g>
      <g>
        <path class="cls-14" d="m2535.52,142.85c1.33-.26.58-.84-3.1-.73l-2.61.99,5.71-.26Z"/>
        <path class="cls-14" d="m2510.78,141.01c-4.32.48-9.31,1.33-6.51,2.24,4.28-.95,5.32-.56,9.93-1.69,3.68-.12,6.42.32,5.8.68,1.3-.25,5.72.22,7.7-.41-4.79-.77-10.85-.8-17.19-.16-1.36-.22-.04-.48.27-.66Z"/>
        <path class="cls-14" d="m2151.26,139.46l2.32.12c-.63-.07-1.43-.1-2.32-.12Z"/>
        <path class="cls-14" d="m1928.51,138.92c1.7-.02,2.4-.12,2.49-.21-1.57.06-2.87.13-2.49.21Z"/>
        <path class="cls-14" d="m1890.47,137.82c.82.03,1.5.05,2.24.07-.85-.09-1.72-.14-2.24-.07Z"/>
        <path class="cls-14" d="m2151.26,139.46l-5.95-.31c-.42.32,3.05.24,5.95.31Z"/>
        <path class="cls-14" d="m2461.2,143.41c1.25-.05,2.28-.14,3.23-.26-1.02.04-2.01.08-3.04.1-.06.05-.1.1-.2.16Z"/>
        <path class="cls-14" d="m2249.46,138.66h1.81c.53-.11,1.03-.25,1.5-.41l-3.31.41Z"/>
        <path class="cls-14" d="m2324.82,138.5c-1.7-.04-2.3.81-2.95,1.17.96-.35,2.22-.51,3.72-.58.03-.16-.2-.35-.77-.6Z"/>
        <path class="cls-14" d="m2444.31,139.99l2.12-.12c-.55.04-1.48.07-2.12.12Z"/>
        <path class="cls-14" d="m2195.52,138.47c-.13-.12-.4-.23-.69-.3,0,.11.27.21.69.3Z"/>
        <path class="cls-14" d="m87.71,144.81c.06-.06-.02-.1,0-.15-.44.08-.57.15,0,.15Z"/>
        <path class="cls-14" d="m.35,140.64l1.21-.05c.13-.16.26-.32.26-.47l-1.47.52Z"/>
        <path class="cls-14" d="m1820.87,136.74c.14,0,.18,0,.31.02,1.83-.1.79-.08-.31-.02Z"/>
        <path class="cls-14" d="m1181.91,137.36c7.24.75-11.78.97-.88,1.81-1.01-.33,9.91-1.32.88-1.81Z"/>
        <path class="cls-14" d="m2459.25,143.29c-1.02,0-2.05.02-3.09,0,1.41.03,2.35.02,3.09,0Z"/>
        <path class="cls-14" d="m1181.02,139.17h0s1.13.09,1.13.09c-.47-.03-.73-.06-1.13-.09Z"/>
        <path class="cls-14" d="m1660.5,137.25c.33.15.97.26,1.64.37-.06-.09-.42-.19-1.64-.37Z"/>
        <path class="cls-14" d="m1779.97,138.45l-2.96-.11c1.17.08,2.12.1,2.96.11Z"/>
        <path class="cls-14" d="m1598.47,138.44c-1.61-.06-2.15-.18-4.35-.07.2.04.41.07.67.1.79-.11,1.85-.17,3.68-.04Z"/>
        <path class="cls-14" d="m1533.9,138.44c.34.06.79.11,1.19.17.64-.02,1.39-.03,2.05-.04l-3.24-.12Z"/>
        <path class="cls-14" d="m283.93,144.41c-1.41-.24-2.29-.5-2.98-.76,1,.6-8.49.81,2.98.76Z"/>
        <path class="cls-14" d="m2461.17,142.93c-.38.21-.93.32-1.92.36.74,0,1.45-.03,2.15-.05.19-.13.23-.24-.23-.32Z"/>
        <path class="cls-14" d="m1595.84,145.09l-10.26-.12c2.87.08,6.6.12,10.26.12Z"/>
        <path class="cls-14" d="m747.14,144.29l-2.35.1c.91.02,1.74,0,2.35-.1Z"/>
        <path class="cls-14" d="m1555.14,145.09c-1.83-.3-3.77-.47-5.78-.58-.42.07-.91.12-1.19.22l6.97.37Z"/>
        <path class="cls-14" d="m280.93,143.64s.02,0,.02,0c0,0,0,0-.02,0Z"/>
        <path class="cls-14" d="m213.36,145.64c9.78.02,4.59-1.08,6.66-1.72,11.67-.31,5.4.82,9.37,1.38,7.29-.29,12.87-1.31,18.3-1.27.41.18,1.46.25.22.48,7.7-.88,22.86-.04,31.84-1.15.67.1,1,.19,1.17.28-1.45-.56-1.68-1.12-1.38-1.52,4.38-.02,8.13-.7,9.78.02-2.69-.02-2.91.27-4.17.5l4.59-.31c4.13,1.04-6.27.36-6.27,1.13,8.95-.34,19.39-1.2,26.25-.91,1.43,1.02-16.04.34-6.89,1.25l-10.62-.39c8.11,1.61-6.45-.11,1,1.61,13.97.29,15.63-.52,29.56-.22,3.14-.57-1.04-.84,2.1-1.4,19.81-1.02,15.59,2.56,30.15,1.2,3.77-.68,5.23-1.97,15.6-1.29l-3.54,1.15c13.53.11,7.72-1.66,21.89-.88-2.52.45-10.63.38-8.58.52,9.18.91,6.49-.65,13.54-.65l1.46,1.02c14.4-.16,30.26-.9,46.21-1.08-.88.3-3.61.62.12.93,20.11-.51,42.94.12,62.34.73l7.41-.88c1.72.01,3.2.4,1.33.57,7.56.33.39-.56,4.03-.9,4.3-.06,5.68.51,2.96.77,13.34-.75,38.01-1.61,52.07-.67l-2.74.26c10.95.36,12.35-1.8,22.51-.98l-1.95.16c23.76.38,50.02-.42,68.14.9,3.45-1.27,23.52.57,25.04-1.2,13.57.88,9.68,1.19,28.79,1.78,5.1.08,7.61-1.1,13.91-1.29l.15.93,8.56-.97,4.56,1.11,5.92-.24c-2.36-.05-5.01-.42-4.65-.68,9.24-.42,22.53.64,22.76,1.12l21.87-.78c-.49.37-4.15.5-7.04.74,11.67-.94,2.12.97,12.82.11-1.43-.21.77-.55,1.02-.74,5.33.56,17.47.56,26.45.33l-1.72.64c16.22.16,34.19-.31,52.4-.29-6.53-.3-5.03-1.4.31-1.51l2.13.98c3.45-.6-5.58-.37,1.5-1.11,6.8.11,4.57,1.11.67,1.43l8.27-.34c.49.29-1.45.45-1.96.82,3.39-.61,14.27.98,19.16-.07l.47.29c18.2,0,26.45-.33,41.27-.38.29-.84,6.09-.66,10.5-1.34,10.89.27,22.98.93,36.11.86,9.22-.42,2.69-.71,6.84-1.21.68.77,13.79.7,6.99,1.25,15.75-.13,20.12-.15,40.04-.78-2.16-.31-4.59-.45-3.33-.71,3.62-.13,8.23.32,7.71.69l-.95.08c22.36-1.15,51.61,2.24,69.42.64l-1,.08,18.47-.83c8.5.13-5.1.58,1.19,1.05,19.92-1.28,31.47.19,47.88-.67,12.7,2.27,45.06-.16,62.2,1.29l-.99-.53c4.43-.52,5.36.31,8.62.43-.46-.41-4.81-.48-2.05-.77,37.53-.64,77.46.78,115.93,1.26,14.07.14,7.99-2.76,25.72-1.49l-5.04.99c28.4-1.19,58.06.04,85.86-.97-1.66.23-1.7.53-4.42.52,5.87.72,21.71.04,21.81-.55,4.33.07,1,.53,3.67.83,5.89.42,14.78-.92,17.91-.2.53.12-1.65.23-2.73.29,3.84-.35,17.88.09,14.21-.74,10.43.4,19.96-.37,28.28.12,5.43-.93,17.86.45,19.58-.87-.75,1.36,18.29,1.09,24.89.46-2.21.41,5.74.43,3.15.99,7.53-.02,14.43-.27,13.11-.97,13.87,1.62,27.88-1.31,35.69.77,22.36-.73,43.06-1.22,63.17-1.54-.73,1.35-22.24.13-21.37,1.55,19.08-.56,30.09-1.72,49.02-1.39,4.9.19-2.78.59-4.44.82,19.07-.56,36.87.12,53.83-.61-.05.13-1.88.26-3.61.37,3.34-.04,7.78.2,7.4-.42l-3.26.17c-5.34-.89,13.28-1.87,13.88-2.34-5.67,1.76,16.76.44,7.74,2.67,2.2-.12,4.96-.41,4.46-.82,3.26.12,4.3.36.99.83,11.98-.33,7.72-.99,18.57-.98-.04.3-2.23.41-3.35.76,5.49-.58,11.01-1.16,20.18-.91-.55.18.51.41-2.22.41,15.75-.09,26.84-1.55,44.12-.98-5.1,1.29,5.88.43,6.79,1.55l9.29-.33-3.73-.54c8.14.02,15.33-.8,22.32-.43l-6.05.46,15.25-.21-8.63-.42c8.23-.58-.88-1.42,9.95-1.1-2.2.11,8.14.01,12.38.67,0,0-.03,0-.03,0,4.03-.36,8.17-.73,14.18-.45,1.56.36-1.26,1.24-.24,1.48,3.97-.94,19.06-.26,24.09-1.26-1.68.23-1.76.82-1.21.94l3.33-.76c3.77.24,4.32.36,3.71.83,11.34.14-3.6-1.42,9.86-.81-1.06.06-.55.18-2.75.29,13.52.32,26.11-.48,38.53-.11,3.66,1.13-10.85.28-6.66,1.23,17.91-.2,37.08-1.35,54.41-1.09l-3.23-.12c2.4-1.59,12.91.79,21.67.04-2.15.12-2.81.88-2.23.71,11.87.26,24.26-.39,42.24-.89l-2.23.41c6.99.36,18.42.21,25.97.4,2.24-.41,6.56-.34,3.94-.94,23.29,2.33,44.43-1.25,65.1.69-2.47,0-5.89.36-3.92.36l17.6-.38c-1.39-.69-2.31-.42-6.01-.96,2.23-.41,7.2-.73,11.56-.73-7.92.46.07,1.11,3.49,1.5-.57-.21.6-.45.31-.66,9.2,1.23,1.54-1.4,14.1-.56l-.66.36c4.7-.19,9.03-.67,14.1-.56,2.1.8-5,.37-5.32,1.03,7.12-.05,14.04-1.52,20.49-.72-3.02.22-7.37.23-10.39.45,7.02.94,7.83.7,13.04.85l-.51-.02,12.05.43-3.07-.25c8.91-2.09,18.14-.38,30.13-1.75-11.66,1.3-1.93.75-2.82,1.66,3.06.25,7.72.53,6.39.79,5.67-.73,9.47.58,17.47-.49.36.29,6.07.03,4.79.76,7.37-.23-1.74-.51-1.12-.88,11.36-1,26.71,1.21,43.06-.16,14.1-.56,16.7-1.55,29.78-2.04,4.41.47-3.62,1.07-3.62,1.07,7.12.43,12.48.35,19.19.02-1.36.25.04.47,2.09.8,5.39-.08,3.6-1.06,10.7-.63-1.22.33-2.78.85-5.38,1.18,6.35-.27,12.62-.82,19.19-1.08,1.74.51-3.97.77-6.28,1.11,7.38-.23,19.13-.46,21.41-1.27l-4.74-.29c2.69-.04,1.38.69-.6.84-6.33.63-9.13-.28-9.49-.57l4.68-.19c-4.81-1.72-18.8.28-28.21.18l3.93-1.25-9.66,1.04c-2.05-.32-3.46-1.02,1.19-1.21-6.75-.62-5.98.44-11.78-.24-.64-.11-.35-.17.24-.22l-6.6.37c1.29-.26-1.1-.88,2.96-.7-11.84-.72-19.1.94-23.56,0l.99-.08c-16.43.42-1.59.92-13.91,1.99l-8.29-2.26-1.62.92c-1.7-.03-5.05-.1-4.43-.47-6.31.63,1.08.4-2.59.99-8.16-.83-22.5.39-24.34-1.07-2.93.7,7.8.54-.91,1.02-2.48-1.57-10.07.27-17.52-.45,2.29-.81,9.35-.38,1.89-1.1-4.5,1.37-14.52-.3-20.8-.04-.3,1.09-13.67.46-24.22.82.67-.37-19.85-.6-29.67-.99l.29-.18c-1.9,1.1-12.03.89-19.4,1.12.29-.66,1.62-.92,5.61-1.22h-6.93c-1.64.36-3.8.54-8.29.67l1.74-.82c-9.22.05-18.57.97-30.44.42-.67.77,9.44,2.14-3.11,2.65-.47-.42-.93-1.13,2.35-1.3-1.08.05-3.84.35-6,.17l5.01-.7c-5.4-.31-2.83.58-7.15.52.09-.59-3.2-.42-2.58-.89,1.1-.06,3.77.25,5.42.01-4.87-.11-10.76-.46-12.71-.91.42.34,0,.8-3.57.87-9.22.04-3.16-.71-8.54-1.02-2.23.41-8.12-.02-8.27.87-2.7,0-3.2-.42-4.24-.66-4.77.39-22.3.11-16.92,1.05l1.22.06c-.23.02-.5.02-.78.04h.04-.04c-15.65.88-32.5-.5-48.03-.12l.02-.3c-9.27.34-20.63.2-27.24.84-2.74,0-6.47-.54-5.3-.89-7.08.22-7.88.56-18.11.07,7.12-.52-2.46-.46,7.3-.38-9.2-.26-11.29-.73-21.17.08,3.36-.76-6.93-.96-11.31-.73l6.45.54c-4.92.11-9.22.04-13.59-.02l2.36-1c-18.84-1.21-33.97,2.07-48.31.03-4.98.7,10.23.49,5.77,1.31-8.66-.13-17.69-1.57-20.41-1.57-11.87-.55-11.07,1.46-23.49,1.08,1.59.36,3.09,1.31-6.19,1.64-8.67-.13-10.66-1.49-5.18-1.78,2.08-.03,3.08.08,2.99.2,2.8-.13,6.48-.28,3.04-.67l-1.13.36c-4.3-.36-16.23-.33-13.43-.91-6.55.34-2.8.58,2.05.77-11.12-.52-17.38-.02-28.82-.36,1.82.2,3.5.61,1.68.61-16.79-.44-7.39.68-18.77.83-6.46-.54,2.32-1.3-9.14-.84-6.99-.37-1.48-.94,1.3-1.23-10.43.69-19.5-.45-25.45-.58l5.5-.29c-3.29.17-5.98.17-8.72.16l3.14.71c-3.23-.12-5.96-.13-5.9-.42-3.33.47,2.55,1.18-4.05,1.82-4.3-.36-13.1.39-14.59-.56,13.53.32-1.49-.95,9.96-1.1-2.21.11-4.9.11-8.14-.02-.49-.11.46-.2,1.34-.25-12.95-.84-5.95,1.07-19.37,1.05,1.7-.53-3.11-1.01-5.3-.9,5.41.01,2.59.89-2.37,1.3-8.6-.41-9.35.31-13.86.26l5.14.2c-1.74.53-6.04.46-12.04.63-.51-.41,5.45-.28,3.31-.47-6.66.94-15.05-.97-24.33-.34-4.3-.36-.42-1-4.19-1.25-10.41.69-11.27-.73-22.21-.16,3.15.72,3.7.54-4,1.24l17.98-.5-11.54,1.04c5.43.01,11.45-.45,14.7-.33-5.5.58-4.93.41-2.34,1-7.43-1.07-14.72.63-23.31-.1l.26-1.77c-12.91-.79-22.93.91-39.69.46l5.39.31c-2.25.7-10.35.1-15.77.38.5-.59-2.89-.81-5.2-1.18.28.44-12.27-.04-13.79,1.14l-7.48-.78c-13.53-.32-15.44,1.69-28.45,1.49,3.92-.64-1.99-1.06,6.72-1.52-4.34,0-8.25-.11-8.32.3-2.54-.37-12.04.8-16.03.23-1.83.26-2.43.88-7.3.83-.53-.12.02-.29.02-.29-.02.29-7.63.4-3.37,1.05-13.38-1.85-37.39.13-49.04-1.45-9.48.2-20.9.39-29.5.43.55-.18.03-.3,1.65-.23-11.87-.55-7.3,1.7-20.8,1.09-6.9-.96,7.17-.52,2.87-.88-1.87-1.95-16.3.27-25.39-.87l2.2-.11c-6.95-.66-16.95.74-28.3.6,0,0,.55-.17.07-.29-7.76.99-22.46,1.32-33.38,1.6,3.4-.76,4.96-.4,2.89-1.18-4.89.11,1.43,1.24-8.34,1.46-3.18-.42-10.22-.78-11.16-1.61l9.22-.04c-4.72-1.07-11.93.04-16.78-.15l.62-.47c-14.12.15-14.32,1.33-29.5,1.25l1.57.35c-8.29,1.17-6.95-.66-15.23.21l-2.5-1.18c-5.47.29-19.17,1.15-28.99,1.37,5.56-.88,17.05-1.33,24.16-1.85-5.43,0-18.44.09-21.27.67,2.19-.11,4.94-.4,7.1-.22-6.66.93-15.41,1.39-26.23,1.37,1.92-2.3-28.18-.58-36.02-2.36-19.13.85-37.94-.36-60.23-.23,7.9,1.79-6.51.05-5.14,1.89-5.19.12-7.17.09-7.63-.03l-15.73-1.1c-3.73-.53,4.94-.4,4.46-.82-11.36-.14-4.77-.78-12.29-1.26,1.54.66-3.95.94-10.43.69l9.12.85c-15.88.98-13.73-1.54-29.73-.57l5.06-.58c-8.21.34-30.3-.01-38.35,1.46-1.45-.21-3.37-.71.24-.85-19.63-.22-43.7,1.57-58.96.66l1.49-.45c-3.66.13-6.38.84-10.96.39.24-.19,1.48-.45-.22-.47-1.94.15-9.73.79-14.58.52l4.15-.5c-19.15-.59-29.39,1.23-45.44,1.54.04-1.32-15.03-1.75-22.55-1.96l.26-.19c-22.3-.16-37.87,1.09-58.52,1.61-12.82-1.43-43.42-.6-64.02-1.4,3.15.24-.51,1.03-4.17,1.16-4.83-.27-13.36.92-12.6-.29l1.72.02c-3.64-1.19-13.58-.87-21.33-.9l-1.28,1.58c-20.29-2.3-53.16.85-64.24-1.22-4.89.4-10.96.39-15.81.79l.26-.85c-13.57-.22-20.34-.32-37.11-.12l3.42-.61c-9.46-.06-11.94,2.45-20.67,2.5l-2.63-1.27c-16.5.02-33.2-1.09-49.51.06.27-.19.75-.55,3.42-.6-7.77-.03-30.05-.86-27.22.88-.19-1.13-17.02-.11-25.94.39l1.39-.84c-7.52,1.07-7.76,1.36-18.27,1.66-2.49-.11-2.18-.67,1.12-.46-8.29-.44-6.46.79-16.52.35l3.75-.53c-8.53-.06-7.86.22-12.55.84-5.37.34-16.19-.21-17.45-.97-1.15.46-5.82,1.08-10.85.86-.68-.29,1.15-.46,2.07-.55-14.27-.57-21.22.97-31.03.15-.2-.28-.84-.42-1.66-.5,11.34.02,20.47.07,19.61.13,0-.77-9.16-.91-1.87-1.97-7.35.58-19.92,1.84-28.85,1.48-.43-.07-.85-.15-1.18-.27l.92-.09c-2.06-.08-3.9,0-5.64.12-2.85-.13-4.66-.22-7.39-.23-1.06-.64-10.5-.34-15.07-.38.38.84-5.6.71,0,1.4-.73-.06.86-.1,3.9-.14.69-.02,1.49-.04,1.95-.09-.09.02-.2.05-.31.07,3-.02,6.91-.04,11.35-.06-3.61.43-7.38.79-12.43.32-2.34.54-4.92,1.1-6.38,1.36-6.25-1.18-18.29-1.81-19.97-2.54-13.94.47-32.84.31-41.61,1.9-3.97.2-4.56-.45-6.04-.7,2.29-.16,5.01-.13,6.25-.36-7.93.41-23.48.16-25.37,1.26-9.99-.5,5.61-1.02-8.11-.84l1.85-.34c-27-1.77-43.9,2.83-73.84.55,2.07.14,3.11.2,3.54.39-34.13-1-70.34.94-104.02-.65-9.57-.32-10.61.39-16.45.92l-2.07-.91-9.99,1.04c-14.17.77-24.53-2.22-42.47-.78l2.31.61c-6.44-.11-20.4.36-19.33-.34-.66.11-2.11.64-4.63.32l-.2-.47-15.82.81c-12.27-.34,1.92-1.88-15.98-1.97-6.65.18-18.95,1.38-16.45,1.7,2.69.02,6.86.3,7.06.77l-6.09.25c-1.1,1.4-5.78,2.83,9.16,3.8l10.41-.85,3.35.68-8.76.04c4.97.64,8.12.07,11.65-.31.84.36,2.3.61,4.36.75l10.22-1.33c1.24.55-4.58,1.08,2.27,1.39,4.79-.62-4.59-1.23,3.33-1.63,4.98.63,3.53,1.15,9.37.61.82.36-.42.59-2.73.75,5.2-.43,13.77-.18,16.45-.92,5.19.78,17.57-.2,17.05,1.12,1.64-.32,9.16-1.04,13.94-1.09-8.73,1.58,17.89.09,15.58,1.79,6.46-1.42,23.34-.63,34.78-1.42-.64.11-1.9.34-2.91.27,6.44.12,8.31.55,12.45.82.83-1.18,10.86-1.44,16.27-2.17,7.89,1.13-4.8,1.38-2.32,2.47-.4-.95,13.72-.95,11.03-1.74,6.04.7,5.2.34,8.31,1.32,1.06-1.47,5.62-.25,10.63-1.15,8.74.72,2.25,1.38,11.85.93,4.57.45-3.97.97-3.97.97Zm228.3-2.54v.02c-1.97.02-3.64.04-4.71.05.98-.01,2.34-.03,4.71-.06Zm19.19-.01c-2.34-.03-5.24-.04-8.32-.03-.67-.29.05-.59,1.99-.58-1.05.19,3.47.36,6.34.61Zm-40.58-5.84c3.04-.12,4.05.05,4.47.22-1.43.01-3.11.04-5.31.1-.09.03-.27.07-.36.1.29-.16.62-.31,1.2-.42Z"/>
        <path class="cls-14" d="m414.81,138.35c-.44.02-.68.05-1.25.06.62.07,1.21.14,1.81.19.37-.09.75-.18,1.08-.26-.55,0-1.12,0-1.64.01Z"/>
        <path class="cls-14" d="m2153.98,139.6l-.41-.02c.34.03.65.07.85.12-.27-.04-.27-.07-.44-.1Z"/>
        <polygon class="cls-14" points="725.77 144.7 725.75 144.49 724.07 144.67 725.77 144.7"/>
        <path class="cls-14" d="m2259.65,142.49c.2.07.6.15,1.39.22-.06-.06-.66-.13-1.39-.22Z"/>
        <path class="cls-14" d="m2305.29,142.68l6.46.3c-2.79-.17-4.83-.25-6.46-.3Z"/>
        <path class="cls-14" d="m2340.39,143.1c.44-.15.57-.26.69-.36-.03,0-.05,0-.07,0l-.62.37Z"/>
        <path class="cls-14" d="m1782.39,144.09c-.47,0-.94.02-1.35.04-3.18.16-1.02.1,1.35-.04Z"/>
        <path class="cls-14" d="m1948.45,142.12c-1.76.15-3.5.3-5.34.4,2.96.06,5.25.08,5.34-.4Z"/>
        <path class="cls-14" d="m1596.97,145.11s0,0,.02-.01c-.4,0-.75,0-1.14,0h1.12Z"/>
        <path class="cls-14" d="m1935.39,142.51c2.96.17,5.43.13,7.72.01-2.42-.06-5.28-.14-7.72-.01Z"/>
        <path class="cls-14" d="m2492.5,143.48l1.69.03c-.03-.06.07-.1.2-.14l-1.89.1Z"/>
        <path class="cls-14" d="m2494.39,143.38l1.88-.1c-.86,0-1.61,0-1.88.1Z"/>
        <path class="cls-14" d="m2500.22,143.07l-3.95.21c1.37,0,3.06.03,3.95-.21Z"/>
        <path class="cls-14" d="m2446.04,143.09l-.53.31c.29-.06.48-.16.53-.31Z"/>
        <path class="cls-14" d="m2431.92,143.18c3.37.07,8.45.65,13.15.46l.44-.24c-2.21.46-10.39-.73-13.59-.22Z"/>
        <path class="cls-14" d="m2372.99,139.4l11.83.24c-2.07-.33-4.79-.76.59-.84-14.91-.97,3.08.73-12.42.6Z"/>
        <path class="cls-14" d="m2336.31,138.93c6.36-.15-.07-.47.26-.66-4.03.3-5.01.37-.26.66Z"/>
        <path class="cls-14" d="m2071.22,138.93l.64-.77c-4.9.11-.05.3-.64.77Z"/>
        <polygon class="cls-14" points="2020.54 142.89 2025.31 143.37 2027.58 142.67 2020.54 142.89"/>
        <polygon class="cls-14" points="1990.61 137.43 1992.75 137.32 1984.57 137.6 1990.61 137.43"/>
        <path class="cls-14" d="m1545.38,137.7l1.48.95c3.31-.17,4.01-1.23-1.48-.95Z"/>
        <path class="cls-14" d="m1353.18,138.66c-2.09-.47-7.5-.78-10.83-.31,4.32.06,8.63.43,10.83.31Z"/>
        <polygon class="cls-14" points="776.75 137.12 780.61 136.81 773.33 137.07 776.75 137.12"/>
      </g>
      <g>
        <path class="cls-14" d="m977.35,4.85c-.26-.22-.84-.1-.73.51l.99.43-.26-.94Z"/>
        <path class="cls-14" d="m975.51,8.92c.48.71,1.33,1.53,2.24,1.07-.95-.7-.56-.87-1.69-1.63-.12-.6.32-1.06.68-.95-.25-.21.22-.94-.41-1.26-.77.79-.8,1.78-.16,2.82-.22.22-.48,0-.66-.04Z"/>
        <path class="cls-14" d="m973.96,67.97l.12-.38c-.07.1-.1.23-.12.38Z"/>
        <path class="cls-14" d="m973.42,104.56c-.02-.28-.12-.4-.21-.41.07.26.13.47.21.41Z"/>
        <path class="cls-14" d="m972.32,110.81c.03-.13.05-.25.07-.37-.09.14-.14.28-.07.37Z"/>
        <path class="cls-14" d="m973.96,67.97l-.31.98c.32.07.24-.5.31-.98Z"/>
        <path class="cls-14" d="m977.91,17.06c-.05-.21-.14-.38-.26-.53.04.17.08.33.1.5.05,0,.1.02.16.03Z"/>
        <path class="cls-14" d="m973.16,51.84v-.3c-.11-.09-.25-.17-.41-.25l.41.54Z"/>
        <path class="cls-14" d="m973.01,39.46c-.04.28.81.38,1.17.48-.35-.16-.51-.37-.58-.61-.16,0-.35.03-.6.13Z"/>
        <path class="cls-14" d="m974.49,19.83l-.12-.35c.04.09.07.24.12.35Z"/>
        <path class="cls-14" d="m972.98,60.7c-.12.02-.24.06-.3.11.11,0,.21-.04.3-.11Z"/>
        <path class="cls-14" d="m979.31,406.92c-.06,0-.1,0-.15,0,.08.07.15.09.15,0Z"/>
        <path class="cls-14" d="m975.14,421.27l-.05-.2c-.16-.02-.32-.04-.47-.04l.52.24Z"/>
        <path class="cls-14" d="m971.24,122.24s0-.03.02-.05c-.1-.3-.08-.13-.02.05Z"/>
        <path class="cls-14" d="m971.87,227.19c.75-1.19.97,1.94,1.81.15-.33.17-1.32-1.63-1.81-.15Z"/>
        <path class="cls-14" d="m977.8,17.38c0,.17.02.34,0,.51.03-.23.02-.39,0-.51Z"/>
        <path class="cls-14" d="m973.67,227.34h0l.08-.18c-.03.08-.06.12-.09.18Z"/>
        <path class="cls-14" d="m971.75,148.58c.15-.05.26-.16.37-.27-.09,0-.19.07-.37.27Z"/>
        <path class="cls-14" d="m972.95,128.96l-.11.49c.08-.19.1-.35.11-.49Z"/>
        <path class="cls-14" d="m972.94,158.77c-.06.26-.18.35-.07.71.04-.03.07-.07.1-.11-.11-.13-.17-.3-.04-.6Z"/>
        <path class="cls-14" d="m972.95,169.37c.06-.06.11-.13.17-.2-.02-.1-.03-.23-.04-.34l-.12.53Z"/>
        <path class="cls-14" d="m978.91,374.69c-.24.23-.5.38-.76.49.6-.16.81,1.39.76-.49Z"/>
        <path class="cls-14" d="m977.43,17.07c.21.06.32.15.36.31,0-.12-.03-.24-.05-.35-.13-.03-.24-.04-.32.04Z"/>
        <path class="cls-14" d="m979.59,159.2l-.12,1.69c.08-.47.12-1.08.12-1.69Z"/>
        <path class="cls-14" d="m978.79,298.6l.1.39c.02-.15,0-.29-.1-.39Z"/>
        <path class="cls-14" d="m979.59,165.89c-.3.3-.47.62-.58.95.07.07.12.15.22.2l.37-1.15Z"/>
        <path class="cls-14" d="m978.14,375.18s0,0,0,0c0,0,0,0,0,0Z"/>
        <path class="cls-14" d="m980.14,386.28c.02-1.61-1.08-.75-1.72-1.09-.32-1.92.82-.89,1.38-1.54-.29-1.2-1.31-2.11-1.27-3.01.18-.07.25-.24.48-.04-.88-1.27-.04-3.76-1.15-5.23.1-.11.19-.17.28-.19-.56.24-1.12.28-1.52.23-.02-.72-.7-1.34.02-1.61-.02.44.27.48.5.68l-.31-.75c1.04-.68.36,1.03,1.13,1.03-.34-1.47-1.2-3.18-.91-4.31,1.02-.24.34,2.64,1.25,1.13l-.39,1.74c1.61-1.33-.11,1.06,1.61-.16.3-2.29-.52-2.57-.22-4.86-.57-.52-.84.17-1.4-.35-1.02-3.25,2.56-2.56,1.2-4.95-.68-.62-1.97-.86-1.29-2.56l1.15.58c.11-2.22-1.66-1.27-.88-3.59.45.41.38,1.75.52,1.41.91-1.51-.65-1.07-.65-2.23l1.02-.24c-.16-2.37-.9-4.97-1.08-7.59.3.14.62.59.93-.02-.51-3.3.12-7.05.73-10.24l-.88-1.22c.01-.28.4-.53.57-.22.33-1.24-.56-.06-.9-.66-.06-.71.51-.93.77-.49-.75-2.19-1.61-6.24-.67-8.55l.26.45c.36-1.8-1.8-2.03-.98-3.7l.16.32c.38-3.9-.42-8.22.9-11.19-1.27-.57.57-3.86-1.2-4.11.88-2.23,1.19-1.59,1.78-4.73.08-.84-1.1-1.25-1.29-2.29l.92-.03-.97-1.41,1.11-.75-.24-.97c-.05.39-.42.82-.68.76-.42-1.52.64-3.7,1.12-3.74l-.78-3.59c.37.08.5.68.74,1.16-.94-1.92.97-.35.11-2.11-.21.24-.55-.13-.74-.17.56-.88.56-2.87.33-4.34l.64.28c.16-2.66-.31-5.62-.29-8.61-.3,1.07-1.4.83-1.51-.05l.98-.35c-.6-.57-.37.92-1.11-.25.11-1.12,1.11-.75,1.43-.11l-.34-1.36c.29-.08.45.24.82.32-.61-.56.98-2.34-.07-3.15l.29-.08c0-2.99-.33-4.34-.38-6.78-.84-.05-.66-1-1.34-1.73.27-1.79.93-3.78.86-5.93-.42-1.52-.71-.44-1.22-1.12.77-.11.7-2.26,1.25-1.15-.13-2.59-.15-3.31-.78-6.58-.31.35-.45.75-.71.55-.13-.59.32-1.35.69-1.27l.08.16c-1.15-3.67,2.24-8.48.64-11.4l.08.16-.83-3.03c.13-1.4.58.84,1.05-.2-1.28-3.27.19-5.17-.67-7.86,2.27-2.09-.16-7.4,1.29-10.22l-.53.16c-.52-.73.31-.88.43-1.42-.41.08-.48.79-.77.34-.64-6.16.78-12.72,1.26-19.04.14-2.31-2.76-1.31-1.49-4.23l.99.83c-1.19-4.66.04-9.54-.97-14.1.23.27.53.28.52.73.72-.96.04-3.57-.55-3.58.07-.71.53-.17.83-.6.42-.97-.92-2.43-.2-2.94.12-.09.23.27.29.45-.35-.63.09-2.94-.74-2.33.4-1.71-.37-3.28.12-4.65-.93-.89.45-2.93-.87-3.22,1.36.12,1.09-3,.46-4.09.41.36.43-.94.99-.52-.02-1.24-.27-2.37-.97-2.15,1.62-2.28-1.31-4.58.77-5.86-.73-3.67-1.22-7.07-1.54-10.38,1.35.12.13,3.65,1.55,3.51-.56-3.13-1.72-4.94-1.39-8.05.19-.8.59.46.82.73-.56-3.13.12-6.06-.61-8.84.13,0,.26.31.37.59-.04-.55.2-1.28-.42-1.21l.17.54c-.89.88-1.86-2.18-2.34-2.28,1.76.93.44-2.75,2.67-1.27-.12-.36-.41-.81-.82-.73.12-.54.36-.71.83-.16-.33-1.97-.99-1.27-.97-3.05.3,0,.41.37.76.55-.58-.9-1.16-1.81-.91-3.31.18.09.41-.08.41.37-.09-2.59-1.55-4.41-.99-7.25,1.29.84.43-.97,1.55-1.12l-.33-1.53-.54.61c.02-1.34-.8-2.52-.43-3.67l.46.99-.21-2.5-.42,1.42c-.58-1.35-1.42.15-1.11-1.63.11.36.01-1.34.67-2.03,0,0,0,0,0,0-.36-.66-.73-1.34-.45-2.33.36-.26,1.24.21,1.48.04-.94-.65-.26-3.13-1.26-3.96.23.28.82.29.94.2l-.76-.55c.24-.62.36-.71.83-.61.14-1.86-1.42.59-.81-1.62.06.17.18.09.29.45.32-2.22-.48-4.29-.11-6.33,1.13-.6.28,1.78,1.23,1.09-.2-2.94-1.35-6.09-1.09-8.94l-.12.53c-1.59-.39.79-2.12.04-3.56.12.35.88.46.71.37.26-1.95-.39-3.99-.89-6.94l.41.37c.36-1.15.21-3.03.4-4.27-.41-.37-.34-1.08-.94-.65,2.33-3.83-1.25-7.3.69-10.69,0,.41.36.97.36.64l-.38-2.89c-.69.23-.42.38-.96.99-.41-.37-.73-1.18-.73-1.9.46,1.3,1.11-.01,1.5-.57-.21.09-.45-.1-.66-.05,1.23-1.51-1.39-.25-.56-2.31l.36.11c-.19-.77-.67-1.48-.56-2.32.8-.35.37.82,1.03.87-.05-1.17-1.52-2.31-.72-3.36.22.5.23,1.21.45,1.71.94-1.15.7-1.29.85-2.14l-.02.08.43-1.98-.26.5c-2.09-1.46-.38-2.98-1.75-4.95,1.3,1.92.75.32,1.66.46.25-.5.53-1.27.79-1.05-.73-.93.58-1.56-.49-2.87.29-.06.03-1,.76-.79-.23-1.21-.51.29-.88.18-1-1.87,1.21-4.39-.16-7.07-.56-2.32-1.55-2.74-2.04-4.89.47-.73,1.07.59,1.07.59.43-1.17.35-2.05.02-3.15.26.22.47,0,.8-.34-.08-.88-1.07-.59-.63-1.76.33.2.85.46,1.18.88-.27-1.04-.82-2.07-1.08-3.15.51-.29.77.65,1.11,1.03-.23-1.21-.46-3.14-1.27-3.52l-.29.78c-.04-.44.69-.23.84.1.63,1.04-.28,1.5-.57,1.56l-.19-.77c-1.72.79.28,3.09.18,4.63l-1.25-.65,1.04,1.59c-.32.34-1.02.57-1.21-.2-.62,1.11.44.98-.24,1.94-.11.1-.17.06-.22-.04l.37,1.08c-.26-.21-.88.18-.7-.49-.72,1.95.94,3.14,0,3.87l-.08-.16c.42,2.7.92.26,1.99,2.29l-2.26,1.36.92.27c-.03.28-.1.83-.47.73.63,1.04.4-.18.99.43-.83,1.34.39,3.7-1.07,4,.7.48.54-1.28,1.02.15-1.57.41.27,1.65-.45,2.88-.81-.38-.38-1.54-1.1-.31,1.37.74-.3,2.38-.04,3.42,1.09.05.45,2.25.82,3.98-.37-.11-.6,3.26-.99,4.87l-.18-.05c1.1.31.89,1.98,1.12,3.19-.66-.05-.92-.27-1.21-.92v1.14c.36.27.54.62.67,1.36l-.82-.29c.05,1.52.97,3.05.42,5,.77.11,2.14-1.55,2.65.51-.42.08-1.13.15-1.3-.39.05.18.34.63.17.99l-.7-.82c-.31.89.58.46.52,1.17-.59-.01-.42.53-.89.42-.06-.18.24-.62.01-.89-.11.8-.46,1.77-.91,2.09.34-.07.8,0,.87.59.04,1.52-.71.52-1.02,1.4.41.37-.02,1.33.87,1.36,0,.44-.42.53-.66.7.39.78.11,3.66,1.05,2.78l.06-.2s.02.08.04.13h0s0,0,0,0c.88,2.57-.5,5.34-.12,7.89h-.3c.34,1.52.2,3.38.84,4.47,0,.45-.54,1.06-.89.87.22,1.16.56,1.29.07,2.97-.52-1.17-.46.4-.38-1.2-.26,1.51-.73,1.85.08,3.48-.76-.55-.96,1.14-.73,1.86l.54-1.06c.11.81.04,1.51-.02,2.23l-1-.39c-1.21,3.09,2.07,5.58.03,7.93.7.82.49-1.68,1.31-.95-.13,1.42-1.57,2.91-1.57,3.35-.55,1.95,1.46,1.82,1.08,3.86.36-.26,1.31-.51,1.64,1.02-.13,1.42-1.49,1.75-1.78.85-.03-.34.08-.51.2-.49-.13-.46-.28-1.06-.67-.5l.36.19c-.36.71-.33,2.67-.91,2.21.34,1.08.58.46.77-.34-.52,1.83-.02,2.85-.36,4.73.2-.3.61-.57.61-.28-.44,2.76.68,1.21.83,3.08-.54,1.06-1.3-.38-.84,1.5-.37,1.15-.94.24-1.23-.21.69,1.71-.45,3.2-.58,4.18l-.29-.9c.17.54.17.98.16,1.43l.71-.52c-.12.53-.13.98-.42.97.47.55,1.18-.42,1.82.67-.36.71.39,2.15-.56,2.4.32-2.22-.95.25-1.1-1.64.11.36.11.81-.02,1.34-.11.08-.2-.08-.25-.22-.84,2.13,1.07.98,1.05,3.18-.53-.28-1.01.51-.9.87.01-.89.89-.42,1.3.39-.41,1.41.31,1.54.26,2.28l.2-.84c.53.29.46.99.63,1.98-.41.08-.29-.89-.47-.54.94,1.09-.97,2.47-.34,4-.36.71-1,.07-1.25.69.69,1.71-.73,1.85-.16,3.65.72-.52.54-.61,1.24.66l-.5-2.95,1.04,1.9c.01-.89-.45-1.88-.33-2.42.58.9.41.81,1,.38-1.07,1.22.63,2.42-.1,3.83l-1.77-.04c-.79,2.12.91,3.77.46,6.52l.31-.88c.7.37.1,1.7.38,2.59-.59-.08-.81.47-1.18.85.44-.05-.04,2.01,1.14,2.26l-.78,1.23c-.32,2.22,1.69,2.54,1.49,4.67-.64-.64-1.06.33-1.52-1.1,0,.71-.11,1.35.3,1.37-.37.42.8,1.98.24,2.63.26.3.88.4.83,1.2-.12.09-.29,0-.29,0,.29,0,.4,1.25,1.05.55-1.85,2.2.13,6.14-1.45,8.05.2,1.56.39,3.43.43,4.85-.18-.09-.3,0-.23-.27-.55,1.95,1.7,1.2,1.09,3.42-.96,1.13-.52-1.18-.88-.47-1.95.31.27,2.68-.87,4.17l-.11-.36c-.66,1.14.74,2.78.6,4.65,0,0-.17-.09-.29-.01.99,1.28,1.32,3.69,1.6,5.48-.76-.56-.4-.81-1.18-.47.11.8,1.24-.24,1.46,1.37-.42.52-.78,1.68-1.61,1.83l-.04-1.51c-1.07.78.04,1.96-.15,2.76l-.47-.1c.15,2.32,1.33,2.35,1.25,4.85l.35-.26c1.17,1.36-.66,1.14.21,2.5l-1.18.41c.29.9,1.14,3.15,1.37,4.76-.88-.91-1.33-2.8-1.85-3.97,0,.89.09,3.03.67,3.49-.11-.36-.4-.81-.22-1.17.93,1.09,1.39,2.53,1.37,4.31-2.3-.31-.58,4.63-2.36,5.92.85,3.14-.36,6.23-.23,9.89,1.79-1.3.05,1.07,1.89.84.12.85.09,1.18-.03,1.25l-1.1,2.58c-.53.61-.4-.81-.82-.73-.14,1.87-.78.78-1.26,2.02.66-.25.94.65.69,1.71l.85-1.5c.98,2.61-1.54,2.25-.57,4.88l-.58-.83c.34,1.35-.01,4.98,1.46,6.3-.21.24-.71.55-.85-.04-.22,3.22,1.57,7.18.66,9.68l-.45-.24c.13.6.84,1.05.39,1.8-.19-.04-.45-.24-.47.04.15.32.79,1.6.52,2.4l-.5-.68c-.59,3.15,1.23,4.83,1.54,7.46-1.32,0-1.75,2.47-1.96,3.7l-.19-.04c-.16,3.66,1.09,6.22,1.61,9.61-1.43,2.11-.6,7.13-1.4,10.52.24-.52,1.03.08,1.16.69-.27.79.92,2.19-.29,2.07l.02-.28c-1.19.6-.87,2.23-.9,3.5l1.58.21c-2.3,3.33.85,8.73-1.22,10.55.4.8.39,1.8.79,2.6l-.85-.04c-.22,2.23-.32,3.34-.12,6.09l-.61-.56c-.05,1.55,2.45,1.96,2.5,3.4l-1.27.43c.02,2.71-1.09,5.45.06,8.13-.19-.04-.55-.12-.6-.56-.03,1.28-.86,4.94.88,4.47-1.13.03-.11,2.8.39,4.26l-.84-.23c1.07,1.24,1.36,1.27,1.66,3-.11.41-.67.36-.45-.18-.44,1.36.79,1.06.35,2.71l-.53-.62c-.06,1.4.22,1.29.84,2.06.34.88-.21,2.66-.97,2.87.46.19,1.08.96.86,1.78-.29.11-.46-.19-.55-.34-.57,2.34.97,3.49.15,5.1-.28.03-.42.14-.5.27.02-1.86.07-3.36.13-3.22-.77,0-.91,1.5-1.97.31.58,1.21,1.84,3.27,1.48,4.74-.07.07-.15.14-.27.19l-.09-.15c-.08.34,0,.64.12.93-.13.47-.22.76-.23,1.21-.64.17-.34,1.73-.38,2.48.84-.06.71.92,1.4,0-.06.12-.1-.14-.14-.64-.02-.11-.04-.25-.09-.32.02.01.05.03.07.05-.02-.49-.04-1.13-.06-1.86.43.59.79,1.21.32,2.04.54.38,1.1.81,1.36,1.05-1.18,1.03-1.81,3-2.54,3.28.47,2.29.31,5.4,1.9,6.83.2.65-.45.75-.7.99-.16-.38-.13-.82-.36-1.03.41,1.3.16,3.86,1.26,4.17-.5,1.64-1.02-.92-.84,1.33l-.34-.3c-1.77,4.44,2.83,7.21.55,12.13.14-.34.2-.51.39-.58-1,5.61.94,11.55-.65,17.09-.32,1.57.39,1.74.92,2.7l-.91.34,1.05,1.64c.77,2.33-2.22,4.03-.78,6.98l.61-.38c-.11,1.06.36,3.35-.34,3.17.11.11.64.35.32.76l-.47.03.81,2.6c-.34,2.01-1.88-.31-1.97,2.62.18,1.09,1.38,3.11,1.7,2.7.02-.44.3-1.13.77-1.16l.25,1c1.4.18,2.83.95,3.8-1.5l-.85-1.71.68-.55.04,1.44c.64-.82.07-1.33-.31-1.91.36-.14.61-.38.75-.72l-1.33-1.68c.55-.2,1.08.75,1.39-.37-.62-.79-1.23.75-1.63-.55.63-.82,1.15-.58.61-1.54.36-.13.59.07.75.45-.43-.85-.18-2.26-.92-2.7.78-.85-.2-2.88,1.12-2.8-.32-.27-1.04-1.5-1.09-2.29,1.58,1.43.09-2.94,1.79-2.56-1.42-1.06-.63-3.83-1.42-5.71.11.1.34.31.27.48.12-1.06.55-1.37.82-2.05-1.18-.14-1.44-1.78-2.17-2.67,1.13-1.3,1.38.79,2.47.38-.95.07-.95-2.25-1.74-1.81.7-.99.34-.85,1.32-1.37-1.47-.17-.25-.92-1.15-1.75.72-1.44,1.38-.37.93-1.95.45-.75.97.65.97.65Zm-2.54-37.5h.02c.02.32.04.6.05.77-.01-.16-.03-.38-.06-.77Zm-.01-3.15c-.03.38-.04.86-.03,1.37-.29.11-.59,0-.58-.33.19.17.36-.57.61-1.04Zm-5.84,6.67c-.12-.5.05-.67.22-.73.01.24.04.51.1.87.03.01.07.04.1.06-.16-.05-.31-.1-.42-.2Z"/>
        <path class="cls-14" d="m972.85,353.19c.02.07.05.11.06.21.07-.1.14-.2.19-.3-.09-.06-.18-.12-.26-.18,0,.09,0,.18.01.27Z"/>
        <path class="cls-14" d="m974.1,67.52l-.02.07c.03-.06.07-.11.12-.14-.04.04-.07.04-.1.07Z"/>
        <polygon class="cls-14" points="979.2 302.11 978.99 302.12 979.18 302.39 979.2 302.11"/>
        <path class="cls-14" d="m976.99,50.17c.07-.03.15-.1.22-.23-.06,0-.13.11-.22.23Z"/>
        <path class="cls-14" d="m977.18,42.67l.3-1.06c-.17.46-.25.79-.3,1.06Z"/>
        <path class="cls-14" d="m977.6,36.9c-.15-.07-.26-.09-.36-.11,0,0,0,0,0,.01l.37.1Z"/>
        <path class="cls-14" d="m978.59,128.56c0,.08.02.15.04.22.16.52.1.17-.04-.22Z"/>
        <path class="cls-14" d="m976.62,101.28c.15.29.3.57.4.88.06-.49.08-.86-.4-.88Z"/>
        <path class="cls-14" d="m979.61,159.02s0,0-.01,0c0,.07,0,.12,0,.19v-.18Z"/>
        <path class="cls-14" d="m977.01,103.43c.17-.49.13-.89.01-1.27-.06.4-.14.87-.01,1.27Z"/>
        <path class="cls-14" d="m977.98,11.92l.03-.28c-.06,0-.1-.01-.14-.03l.1.31Z"/>
        <path class="cls-14" d="m977.88,11.61l-.1-.31c0,.14,0,.26.1.31Z"/>
        <path class="cls-14" d="m977.57,10.65l.21.65c0-.22.03-.5-.21-.65Z"/>
        <path class="cls-14" d="m977.59,19.55l.31.09c-.06-.05-.16-.08-.31-.09Z"/>
        <path class="cls-14" d="m977.68,21.87c.07-.55.65-1.39.46-2.16l-.24-.07c.45.36-.73,1.71-.22,2.23Z"/>
        <path class="cls-14" d="m973.9,31.55l.24-1.94c-.33.34-.76.79-.84-.1-.97,2.45.73-.51.6,2.04Z"/>
        <path class="cls-14" d="m973.43,37.57c-.15-1.04-.47.01-.66-.04.3.66.37.82.66.04Z"/>
        <path class="cls-14" d="m973.43,81.12l-.77-.11c.11.81.3,0,.77.11Z"/>
        <polygon class="cls-14" points="977.39 89.44 977.87 88.66 977.17 88.29 977.39 89.44"/>
        <polygon class="cls-14" points="971.93 94.36 971.82 94.01 972.1 95.35 971.93 94.36"/>
        <path class="cls-14" d="m972.2,167.49l.95-.24c-.17-.54-1.23-.66-.95.24Z"/>
        <path class="cls-14" d="m973.16,199.06c-.47.34-.78,1.23-.31,1.78.07-.71.43-1.42.31-1.78Z"/>
        <polygon class="cls-14" points="971.62 293.74 971.31 293.11 971.57 294.3 971.62 293.74"/>
      </g>
      <g>
        <path class="cls-14" d="m1756.35,8.45c-.26-.22-.84-.1-.73.51l.99.43-.26-.94Z"/>
        <path class="cls-14" d="m1754.51,12.51c.48.71,1.33,1.53,2.24,1.07-.95-.7-.56-.87-1.69-1.63-.12-.6.32-1.06.68-.95-.25-.21.22-.94-.41-1.26-.77.79-.8,1.78-.16,2.82-.22.22-.48,0-.66-.04Z"/>
        <path class="cls-14" d="m1752.96,71.57l.12-.38c-.07.1-.1.23-.12.38Z"/>
        <path class="cls-14" d="m1752.42,108.15c-.02-.28-.12-.4-.21-.41.07.26.13.47.21.41Z"/>
        <path class="cls-14" d="m1751.32,114.4c.03-.13.05-.25.07-.37-.09.14-.14.28-.07.37Z"/>
        <path class="cls-14" d="m1752.96,71.57l-.31.98c.32.07.24-.5.31-.98Z"/>
        <path class="cls-14" d="m1756.91,20.66c-.05-.21-.14-.38-.26-.53.04.17.08.33.1.5.05,0,.1.02.16.03Z"/>
        <path class="cls-14" d="m1752.16,55.44v-.3c-.11-.09-.25-.17-.4-.25l.4.54Z"/>
        <path class="cls-14" d="m1752.01,43.06c-.04.28.81.38,1.17.48-.35-.16-.51-.37-.58-.61-.16,0-.35.03-.6.13Z"/>
        <path class="cls-14" d="m1753.49,23.43l-.12-.35c.04.09.07.24.12.35Z"/>
        <path class="cls-14" d="m1751.98,64.3c-.13.02-.24.06-.3.11.11,0,.21-.04.3-.11Z"/>
        <path class="cls-14" d="m1758.31,410.52c-.06,0-.1,0-.15,0,.08.07.14.09.15,0Z"/>
        <path class="cls-14" d="m1754.14,424.86l-.05-.2c-.16-.02-.32-.04-.47-.04l.52.24Z"/>
        <path class="cls-14" d="m1750.24,125.83s0-.03.02-.05c-.1-.3-.08-.13-.02.05Z"/>
        <path class="cls-14" d="m1750.87,230.79c.75-1.19.97,1.94,1.81.15-.33.17-1.32-1.63-1.81-.15Z"/>
        <path class="cls-14" d="m1756.8,20.98c0,.17.02.34,0,.51.03-.23.02-.39,0-.51Z"/>
        <path class="cls-14" d="m1752.67,230.93h0l.08-.18c-.03.08-.06.12-.09.18Z"/>
        <path class="cls-14" d="m1750.75,152.18c.15-.05.26-.16.37-.27-.09,0-.19.07-.37.27Z"/>
        <path class="cls-14" d="m1751.95,132.55l-.11.49c.08-.19.1-.35.11-.49Z"/>
        <path class="cls-14" d="m1751.94,162.37c-.06.26-.18.35-.07.71.04-.03.07-.07.1-.11-.11-.13-.17-.3-.04-.6Z"/>
        <path class="cls-14" d="m1751.95,172.97c.06-.06.11-.13.17-.2-.02-.1-.03-.23-.04-.34l-.12.53Z"/>
        <path class="cls-14" d="m1757.91,378.28c-.24.23-.5.38-.76.49.6-.16.81,1.39.76-.49Z"/>
        <path class="cls-14" d="m1756.43,20.66c.21.06.32.15.36.31,0-.12-.03-.24-.05-.35-.13-.03-.24-.04-.32.04Z"/>
        <path class="cls-14" d="m1758.59,162.8l-.12,1.69c.08-.47.12-1.08.12-1.69Z"/>
        <path class="cls-14" d="m1757.79,302.2l.1.39c.02-.15,0-.29-.1-.39Z"/>
        <path class="cls-14" d="m1758.59,169.48c-.3.3-.47.62-.58.95.07.07.12.15.22.2l.37-1.14Z"/>
        <path class="cls-14" d="m1757.14,378.78s0,0,0,0c0,0,0,0,0,0Z"/>
        <path class="cls-14" d="m1759.14,389.88c.02-1.61-1.08-.75-1.72-1.09-.32-1.92.82-.89,1.38-1.54-.29-1.2-1.31-2.11-1.27-3.01.18-.07.25-.24.48-.04-.88-1.27-.04-3.76-1.15-5.23.1-.11.19-.17.28-.19-.56.24-1.12.28-1.52.23-.02-.72-.7-1.34.02-1.61-.02.44.27.48.5.68l-.31-.75c1.04-.68.36,1.03,1.13,1.03-.34-1.47-1.2-3.18-.91-4.31,1.02-.24.34,2.64,1.25,1.13l-.39,1.74c1.61-1.33-.11,1.06,1.61-.16.3-2.29-.52-2.57-.22-4.86-.57-.52-.84.17-1.4-.35-1.02-3.25,2.56-2.56,1.2-4.95-.68-.62-1.97-.86-1.29-2.56l1.15.58c.11-2.22-1.66-1.27-.88-3.59.45.41.38,1.75.52,1.41.91-1.51-.65-1.07-.65-2.22l1.02-.24c-.16-2.37-.9-4.97-1.08-7.59.3.14.62.59.93-.02-.51-3.3.12-7.05.73-10.24l-.88-1.22c.01-.28.4-.53.57-.22.33-1.24-.56-.06-.9-.66-.06-.71.51-.93.77-.49-.75-2.19-1.61-6.24-.67-8.55l.26.45c.36-1.8-1.8-2.03-.98-3.7l.16.32c.38-3.9-.42-8.22.9-11.19-1.27-.57.57-3.86-1.2-4.11.88-2.23,1.19-1.59,1.78-4.73.08-.84-1.1-1.25-1.29-2.29l.92-.03-.97-1.41,1.11-.75-.24-.97c-.05.39-.42.82-.68.76-.42-1.52.64-3.7,1.12-3.74l-.78-3.59c.37.08.5.68.74,1.16-.94-1.92.97-.35.11-2.1-.21.24-.55-.13-.74-.17.56-.88.56-2.87.33-4.34l.64.28c.16-2.66-.31-5.62-.29-8.61-.3,1.07-1.4.83-1.51-.05l.98-.35c-.6-.57-.37.92-1.11-.25.11-1.12,1.11-.75,1.43-.11l-.34-1.36c.29-.08.45.24.82.32-.61-.56.98-2.34-.07-3.15l.29-.08c0-2.99-.33-4.34-.38-6.78-.84-.05-.66-1-1.34-1.73.27-1.79.93-3.78.86-5.93-.42-1.52-.71-.44-1.22-1.12.77-.11.7-2.26,1.25-1.15-.13-2.59-.15-3.31-.78-6.58-.31.35-.45.75-.71.55-.13-.59.32-1.35.69-1.27l.08.16c-1.15-3.67,2.24-8.48.64-11.4l.08.16-.83-3.03c.13-1.4.58.84,1.05-.2-1.28-3.27.19-5.17-.67-7.86,2.27-2.09-.16-7.4,1.29-10.22l-.53.16c-.52-.73.31-.88.43-1.42-.41.08-.48.79-.77.34-.64-6.16.78-12.72,1.26-19.04.14-2.31-2.76-1.31-1.49-4.23l.99.83c-1.19-4.66.04-9.54-.97-14.1.23.27.53.28.52.73.72-.96.04-3.57-.55-3.58.07-.71.53-.17.83-.6.42-.97-.92-2.43-.2-2.94.12-.09.23.27.29.45-.35-.63.09-2.94-.74-2.33.4-1.71-.37-3.28.12-4.65-.93-.89.45-2.93-.87-3.22,1.36.12,1.09-3,.46-4.09.41.36.43-.94.99-.52-.02-1.24-.27-2.37-.97-2.15,1.62-2.28-1.31-4.58.77-5.86-.73-3.67-1.22-7.07-1.54-10.38,1.35.12.13,3.65,1.55,3.51-.56-3.13-1.72-4.94-1.39-8.05.19-.8.59.46.82.73-.56-3.13.12-6.06-.61-8.84.13,0,.26.31.37.59-.04-.55.2-1.28-.42-1.22l.17.54c-.89.88-1.86-2.18-2.34-2.28,1.76.93.44-2.75,2.67-1.27-.12-.36-.41-.81-.82-.73.12-.54.36-.71.83-.16-.33-1.97-.99-1.27-.98-3.05.3,0,.41.37.76.55-.58-.9-1.16-1.81-.91-3.31.18.09.41-.08.41.36-.09-2.59-1.55-4.41-.99-7.25,1.29.84.43-.97,1.55-1.12l-.33-1.53-.54.61c.02-1.34-.8-2.52-.43-3.67l.46.99-.21-2.5-.42,1.42c-.58-1.35-1.42.15-1.11-1.63.11.36.01-1.34.67-2.03,0,0,0,0,0,0-.36-.66-.73-1.34-.45-2.33.36-.26,1.24.21,1.48.04-.94-.65-.26-3.13-1.26-3.96.23.28.82.29.94.2l-.76-.55c.24-.62.36-.71.83-.61.14-1.86-1.42.59-.81-1.62.06.17.18.09.29.45.32-2.22-.48-4.29-.11-6.33,1.13-.6.28,1.78,1.23,1.09-.2-2.94-1.35-6.09-1.09-8.94l-.12.53c-1.59-.39.79-2.12.04-3.56.12.35.88.46.71.37.26-1.95-.39-3.99-.89-6.94l.41.37c.36-1.15.21-3.03.4-4.27-.41-.37-.34-1.08-.94-.65,2.33-3.83-1.25-7.3.69-10.69,0,.41.36.97.36.64l-.38-2.89c-.69.23-.42.38-.96.99-.41-.37-.73-1.18-.73-1.9.46,1.3,1.11-.01,1.5-.57-.21.09-.45-.1-.66-.05,1.23-1.51-1.39-.25-.56-2.32l.36.11c-.19-.77-.67-1.48-.56-2.32.8-.35.37.82,1.03.87-.05-1.17-1.52-2.31-.72-3.36.22.5.23,1.21.45,1.71.94-1.15.7-1.29.85-2.14l-.02.08.43-1.98-.26.5c-2.09-1.46-.38-2.98-1.75-4.95,1.3,1.92.75.32,1.66.46.25-.5.53-1.27.79-1.05-.73-.93.58-1.56-.49-2.87.29-.06.03-1,.76-.79-.23-1.21-.51.29-.88.18-1-1.87,1.21-4.39-.16-7.07-.56-2.32-1.55-2.74-2.04-4.89.47-.73,1.07.59,1.07.59.43-1.17.35-2.05.02-3.15.26.22.47,0,.8-.34-.08-.88-1.07-.59-.63-1.76.33.2.85.46,1.18.88-.27-1.04-.82-2.07-1.08-3.15.51-.29.77.65,1.11,1.03-.23-1.21-.46-3.14-1.27-3.52l-.29.78c-.04-.44.69-.23.84.1.63,1.04-.28,1.5-.57,1.56l-.19-.77c-1.72.79.28,3.09.18,4.63l-1.25-.65,1.04,1.59c-.32.34-1.02.57-1.21-.2-.62,1.11.44.98-.24,1.94-.11.1-.17.06-.22-.04l.37,1.08c-.26-.21-.88.18-.7-.49-.72,1.95.94,3.14,0,3.87l-.08-.16c.42,2.7.92.26,1.99,2.29l-2.26,1.36.92.27c-.03.28-.1.83-.47.73.63,1.04.4-.18.99.42-.83,1.34.39,3.7-1.07,4,.7.48.54-1.28,1.02.15-1.57.41.27,1.65-.45,2.88-.81-.38-.38-1.54-1.1-.31,1.37.74-.3,2.38-.04,3.42,1.09.05.45,2.25.82,3.98-.37-.11-.6,3.26-.99,4.87l-.18-.05c1.1.31.89,1.98,1.12,3.19-.66-.05-.92-.27-1.22-.92v1.14c.36.27.54.62.67,1.36l-.82-.29c.05,1.52.97,3.05.42,5,.77.11,2.14-1.55,2.65.51-.42.08-1.13.15-1.3-.39.05.18.35.63.17.99l-.7-.82c-.31.89.58.46.52,1.17-.59-.01-.42.53-.89.42-.06-.18.25-.62.01-.89-.11.8-.46,1.77-.91,2.09.34-.07.8,0,.87.59.04,1.52-.71.52-1.02,1.4.41.37-.02,1.33.87,1.36,0,.44-.42.53-.66.7.39.78.11,3.66,1.05,2.78l.06-.2s.02.08.04.13h0s0,0,0,0c.88,2.57-.5,5.34-.12,7.89h-.3c.34,1.52.2,3.38.84,4.47,0,.45-.54,1.06-.89.87.22,1.16.56,1.29.07,2.97-.52-1.17-.46.4-.38-1.2-.26,1.51-.73,1.85.08,3.48-.76-.55-.96,1.14-.73,1.86l.54-1.06c.11.81.04,1.51-.02,2.23l-1-.39c-1.21,3.09,2.07,5.58.03,7.93.7.82.49-1.68,1.31-.95-.13,1.42-1.57,2.91-1.57,3.35-.55,1.95,1.46,1.82,1.08,3.86.36-.26,1.31-.51,1.64,1.02-.13,1.42-1.49,1.75-1.78.85-.03-.34.08-.51.2-.49-.13-.46-.28-1.06-.67-.5l.36.19c-.36.71-.33,2.67-.91,2.21.34,1.08.58.46.77-.34-.52,1.83-.02,2.85-.36,4.73.2-.3.61-.57.61-.28-.44,2.76.68,1.21.83,3.08-.54,1.06-1.3-.38-.84,1.5-.37,1.15-.94.24-1.23-.21.69,1.71-.45,3.2-.58,4.18l-.29-.9c.17.54.17.98.16,1.43l.71-.52c-.12.53-.13.98-.42.97.47.55,1.18-.42,1.82.67-.36.71.39,2.15-.56,2.4.32-2.22-.95.25-1.1-1.64.11.36.11.81-.02,1.34-.11.08-.2-.08-.25-.22-.84,2.13,1.07.98,1.05,3.18-.53-.28-1.01.51-.9.87.01-.89.89-.42,1.3.39-.41,1.41.31,1.54.26,2.28l.2-.84c.53.29.46.99.63,1.98-.41.08-.28-.89-.47-.54.94,1.09-.97,2.47-.34,4-.36.71-1,.07-1.24.69.69,1.71-.73,1.85-.16,3.65.72-.52.54-.61,1.24.66l-.5-2.95,1.04,1.9c.01-.89-.45-1.88-.33-2.42.58.9.41.81,1,.38-1.07,1.22.63,2.42-.1,3.83l-1.77-.04c-.79,2.12.91,3.77.46,6.52l.31-.88c.7.37.1,1.7.38,2.59-.59-.08-.81.47-1.18.85.44-.05-.04,2.01,1.14,2.26l-.78,1.23c-.32,2.22,1.69,2.54,1.49,4.67-.64-.64-1.06.33-1.52-1.1,0,.71-.11,1.35.3,1.37-.37.42.8,1.98.24,2.63.26.3.88.4.83,1.2-.12.09-.29,0-.29,0,.29,0,.4,1.25,1.05.55-1.85,2.2.13,6.14-1.45,8.05.2,1.56.39,3.43.43,4.85-.18-.09-.3,0-.23-.27-.55,1.95,1.7,1.2,1.09,3.42-.96,1.13-.52-1.18-.88-.47-1.95.31.27,2.68-.87,4.17l-.11-.36c-.66,1.14.74,2.78.6,4.65,0,0-.17-.09-.29-.01.99,1.28,1.32,3.69,1.6,5.48-.76-.56-.4-.81-1.18-.47.11.8,1.24-.24,1.46,1.37-.42.52-.78,1.68-1.61,1.83l-.04-1.51c-1.07.78.04,1.96-.15,2.76l-.47-.1c.15,2.32,1.33,2.35,1.25,4.85l.35-.26c1.17,1.36-.66,1.14.21,2.5l-1.18.41c.29.9,1.14,3.15,1.37,4.76-.88-.91-1.33-2.8-1.85-3.97,0,.89.09,3.03.67,3.49-.11-.36-.4-.81-.22-1.17.93,1.09,1.39,2.53,1.37,4.31-2.3-.31-.58,4.63-2.36,5.92.85,3.14-.36,6.23-.23,9.89,1.79-1.3.05,1.07,1.89.84.12.85.09,1.18-.03,1.25l-1.1,2.58c-.53.61-.4-.81-.82-.73-.14,1.87-.78.78-1.26,2.02.66-.25.94.65.69,1.71l.85-1.5c.98,2.61-1.54,2.25-.57,4.88l-.58-.83c.34,1.35-.01,4.98,1.46,6.3-.21.24-.71.55-.85-.04-.22,3.22,1.57,7.18.66,9.68l-.45-.24c.13.6.84,1.05.39,1.8-.19-.04-.45-.24-.47.04.15.32.79,1.6.52,2.4l-.5-.68c-.59,3.15,1.23,4.83,1.54,7.46-1.32,0-1.75,2.47-1.96,3.7l-.19-.04c-.16,3.66,1.09,6.22,1.61,9.61-1.43,2.11-.6,7.13-1.4,10.52.24-.52,1.03.08,1.16.69-.27.79.92,2.19-.29,2.07l.02-.28c-1.19.6-.87,2.23-.9,3.5l1.58.21c-2.3,3.33.85,8.73-1.22,10.55.4.8.39,1.8.79,2.6l-.85-.04c-.22,2.23-.32,3.34-.12,6.1l-.61-.56c-.05,1.55,2.45,1.96,2.5,3.39l-1.27.43c.02,2.71-1.09,5.45.06,8.13-.19-.04-.55-.12-.6-.56-.03,1.28-.86,4.94.88,4.47-1.13.03-.11,2.8.39,4.26l-.84-.23c1.07,1.24,1.36,1.27,1.66,3-.11.41-.67.36-.45-.18-.44,1.36.79,1.06.35,2.71l-.53-.62c-.06,1.4.22,1.29.84,2.06.34.88-.21,2.66-.97,2.87.46.19,1.08.96.86,1.78-.29.11-.46-.19-.55-.34-.57,2.34.97,3.49.15,5.1-.28.03-.42.14-.5.27.02-1.86.07-3.36.13-3.22-.77,0-.91,1.5-1.97.31.58,1.21,1.84,3.27,1.48,4.74-.07.07-.15.14-.27.19l-.09-.15c-.08.34,0,.64.12.93-.13.47-.22.77-.23,1.21-.64.17-.34,1.73-.38,2.48.84-.06.71.92,1.4,0-.06.12-.1-.14-.14-.64-.02-.11-.04-.25-.09-.32.02.01.05.03.07.05-.02-.49-.04-1.13-.06-1.86.43.59.79,1.21.32,2.04.54.38,1.1.81,1.36,1.05-1.18,1.03-1.81,3-2.54,3.28.47,2.29.31,5.4,1.9,6.83.2.65-.45.75-.7.99-.16-.38-.13-.82-.36-1.03.41,1.3.16,3.86,1.26,4.17-.5,1.64-1.02-.92-.84,1.33l-.34-.3c-1.77,4.44,2.83,7.21.55,12.13.14-.34.2-.51.39-.58-1,5.61.94,11.55-.65,17.09-.32,1.57.39,1.74.92,2.7l-.91.34,1.05,1.64c.77,2.33-2.22,4.03-.78,6.98l.61-.38c-.11,1.06.36,3.35-.34,3.17.11.11.64.35.32.76l-.47.03.81,2.6c-.34,2.01-1.88-.31-1.97,2.62.18,1.09,1.38,3.11,1.7,2.7.02-.44.3-1.13.77-1.16l.25,1c1.4.18,2.83.95,3.8-1.5l-.85-1.71.68-.55.04,1.44c.64-.82.07-1.33-.31-1.91.36-.14.61-.38.75-.72l-1.33-1.68c.55-.2,1.08.75,1.39-.37-.62-.79-1.23.75-1.63-.55.63-.82,1.15-.58.61-1.54.36-.13.59.07.75.45-.43-.85-.18-2.26-.92-2.7.78-.85-.2-2.88,1.12-2.8-.32-.27-1.04-1.5-1.09-2.29,1.58,1.43.09-2.94,1.79-2.56-1.42-1.06-.63-3.83-1.42-5.71.11.1.34.31.27.48.12-1.06.55-1.37.82-2.05-1.18-.14-1.44-1.78-2.17-2.67,1.13-1.3,1.38.79,2.47.38-.95.07-.95-2.25-1.74-1.81.7-.99.34-.85,1.32-1.37-1.47-.17-.25-.92-1.15-1.75.72-1.44,1.38-.37.93-1.95.45-.75.97.65.97.65Zm-2.54-37.5h.02c.02.32.04.6.05.77-.01-.16-.03-.38-.06-.77Zm-.01-3.15c-.03.38-.04.86-.03,1.37-.29.11-.59,0-.58-.33.19.17.36-.57.61-1.04Zm-5.84,6.67c-.12-.5.05-.67.22-.73.01.24.04.51.1.87.03.01.07.04.1.06-.16-.05-.31-.1-.42-.2Z"/>
        <path class="cls-14" d="m1751.85,356.79c.02.07.05.11.06.21.07-.1.14-.2.19-.3-.09-.06-.18-.12-.26-.18,0,.09,0,.18.01.27Z"/>
        <path class="cls-14" d="m1753.1,71.12l-.02.07c.03-.06.07-.11.12-.14-.04.04-.07.04-.1.07Z"/>
        <polygon class="cls-14" points="1758.2 305.71 1757.99 305.71 1758.18 305.99 1758.2 305.71"/>
        <path class="cls-14" d="m1755.99,53.76c.07-.03.15-.1.22-.23-.06,0-.13.11-.22.23Z"/>
        <path class="cls-14" d="m1756.18,46.27l.3-1.06c-.17.46-.25.79-.3,1.06Z"/>
        <path class="cls-14" d="m1756.6,40.5c-.15-.07-.26-.09-.36-.11,0,0,0,0,0,.01l.37.1Z"/>
        <path class="cls-14" d="m1757.59,132.15c0,.08.02.15.04.22.16.52.1.17-.04-.22Z"/>
        <path class="cls-14" d="m1755.62,104.88c.15.29.3.57.4.88.06-.49.08-.86-.4-.88Z"/>
        <path class="cls-14" d="m1758.61,162.61s0,0-.01,0c0,.07,0,.12,0,.19v-.19Z"/>
        <path class="cls-14" d="m1756.01,107.02c.17-.49.13-.89.01-1.27-.06.4-.14.87-.01,1.27Z"/>
        <path class="cls-14" d="m1756.98,15.52l.03-.28c-.06,0-.1-.01-.14-.03l.1.31Z"/>
        <path class="cls-14" d="m1756.88,15.21l-.1-.31c0,.14,0,.26.1.31Z"/>
        <path class="cls-14" d="m1756.57,14.25l.21.65c0-.22.03-.5-.21-.65Z"/>
        <path class="cls-14" d="m1756.59,23.15l.31.09c-.06-.05-.16-.08-.31-.09Z"/>
        <path class="cls-14" d="m1756.68,25.47c.07-.55.65-1.39.46-2.16l-.24-.07c.45.36-.73,1.71-.22,2.23Z"/>
        <path class="cls-14" d="m1752.9,35.15l.24-1.94c-.33.34-.76.79-.84-.1-.97,2.45.73-.51.6,2.04Z"/>
        <path class="cls-14" d="m1752.43,41.17c-.15-1.04-.47.01-.66-.04.3.66.37.82.66.04Z"/>
        <path class="cls-14" d="m1752.43,84.71l-.77-.1c.11.81.3,0,.77.1Z"/>
        <polygon class="cls-14" points="1756.39 93.04 1756.87 92.25 1756.17 91.88 1756.39 93.04"/>
        <polygon class="cls-14" points="1750.93 97.95 1750.82 97.6 1751.1 98.95 1750.93 97.95"/>
        <path class="cls-14" d="m1751.2,171.08l.95-.24c-.17-.54-1.23-.66-.95.24Z"/>
        <path class="cls-14" d="m1752.16,202.66c-.47.34-.78,1.23-.31,1.78.07-.71.43-1.42.31-1.78Z"/>
        <polygon class="cls-14" points="1750.62 297.34 1750.31 296.7 1750.57 297.9 1750.62 297.34"/>
      </g>
    </g>
  </g>
</svg>